*
*
G04 PADS Layout (Build Number 2004.211.1) generated Gerber (RS-274-X) file*
G04 PC Version=2.1*
*
%IN "BD9D321EFJ-EVK-004.pcb"*%
*
%MOMM*%
*
%FSLAX35Y35*%
*
*
*
*
G04 PC Standard Apertures*
*
*
G04 Thermal Relief Aperture macro.*
%AMTER*
1,1,$1,0,0*
1,0,$1-$2,0,0*
21,0,$3,$4,0,0,45*
21,0,$3,$4,0,0,135*
%
*
*
G04 Annular Aperture macro.*
%AMANN*
1,1,$1,0,0*
1,0,$2,0,0*
%
*
*
G04 Odd Aperture macro.*
%AMODD*
1,1,$1,0,0*
1,0,$1-0.005,0,0*
%
*
*
G04 PC Custom Aperture Macros*
*
*
*
*
*
*
G04 PC Aperture Table*
*
%ADD011R,0.9X0.7*%
%ADD012R,1.7X1.2*%
%ADD013R,2.6X1.4*%
%ADD014C,1.8*%
%ADD015R,1.7X2.2*%
%ADD016C,1.6*%
%ADD017C,3.3*%
%ADD019C,0.2*%
%ADD020C,0.6*%
%ADD021C,0.1*%
%ADD022C,2*%
%ADD023C,0.3*%
%ADD036R,0.7X0.9*%
%ADD045R,0.75X1.4*%
%ADD046R,4.9X3.2*%
*
*
*
*
G04 PC Custom Flashes*
G04 Layer Name BD9D321EFJ-EVK-004.pcb - flashes*
%LPD*%
*
*
G04 PC Circuitry*
G04 Layer Name BD9D321EFJ-EVK-004.pcb - circuitry*
%LPD*%
*
G54D11*
G01X12600000Y11830000D03*
Y11970000D03*
X12200000Y11830000D03*
Y11970000D03*
X12000000Y13070000D03*
Y12930000D03*
X12800000Y11970000D03*
Y11830000D03*
X12500000Y12270000D03*
Y12130000D03*
X12700000Y12270000D03*
Y12130000D03*
X12400000Y11970000D03*
Y11830000D03*
G54D12*
X13400000Y13675000D03*
Y13425000D03*
X13700000Y13675000D03*
Y13425000D03*
G54D13*
X11700000Y13130000D03*
Y12870000D03*
X11300000Y13130000D03*
Y12870000D03*
G54D14*
X10650000Y11900000D03*
Y11650000D03*
Y11400000D03*
G54D15*
X12495000Y13600000D03*
X13105000D03*
G54D16*
X11700000Y13400000D03*
Y12600000D03*
X13400000Y14000000D03*
Y13100000D03*
X12200000Y13800000D03*
Y12250000D03*
G54D17*
X10500000Y10500000D03*
X14500000D03*
X10500000Y14500000D03*
X14500000D03*
G54D19*
X8999999Y31600000D02*
G75*
G03X8999999I-199999D01*
G01X8550000D02*
X9050000D01*
X8800000Y31850000D02*
Y31350000D01*
X39799999Y8400000D02*
G03X39799999I-199999D01*
G01X39350000D02*
X39850000D01*
X39600000Y8650000D02*
Y8150000D01*
X40399999Y8400000D02*
G03X40399999I-199999D01*
G01X39950000D02*
X40450000D01*
X40200000Y8650000D02*
Y8150000D01*
G54D20*
X12910000Y11830000D03*
X12210000Y12410000D03*
X12150000Y12800000D03*
Y12700000D03*
X12450000Y12800000D03*
X12350000D03*
X12250000Y12700000D03*
Y12800000D03*
X12450000Y12700000D03*
X12350000D03*
X12650000Y12800000D03*
Y12700000D03*
X12550000Y12800000D03*
Y12700000D03*
X12750000Y12750000D03*
Y12860000D03*
Y12650000D03*
X12150000Y12900000D03*
X12350000D03*
X12250000D03*
X12450000D03*
X12650000D03*
X12550000D03*
X12750000Y12950000D03*
X12800000Y13100000D03*
X13000000D03*
X13200000D03*
X13600000D03*
X13800000D03*
X12900000Y13200000D03*
X13000000Y13300000D03*
X13100000Y13200000D03*
X13200000Y13300000D03*
X13300000Y13200000D03*
X13500000D03*
X13400000Y13300000D03*
X13720000Y13200000D03*
X13600000Y13300000D03*
X13800000D03*
X13870000Y13670000D03*
G54D21*
X12245000Y13005000D02*
X10342071D01*
X10185000Y13162071*
Y13567928*
X10185000D02*
X10812071Y14195000D01*
X11997928*
X11997928D02*
X12035000Y14157928D01*
X12035000D02*
Y13267928D01*
X12035000D02*
X12087928Y13215000D01*
X12087928D02*
X12177928D01*
X12177928D02*
X12245000Y13147928D01*
X12245000D02*
Y13005000D01*
X12425000Y13065000D02*
Y13552071D01*
X12232071Y13745000*
X12175000*
Y13837928*
X12175000D02*
X12182071Y13845000D01*
X12437928*
X12437928D02*
X12575000Y13707928D01*
X12575000D02*
Y13222071D01*
X12495000Y13142071*
Y13065000*
X12425000*
X13025000Y13495000D02*
Y14087928D01*
X13025000D02*
X13132071Y14195000D01*
X14217928*
X14217928D02*
X14327928Y14085000D01*
X14327928D02*
X14747928D01*
X14747928D02*
X14795000Y14037928D01*
X14795000D02*
Y13422071D01*
X14697928Y13325000*
X14697928D02*
X14082071D01*
X13882071Y13525000*
X13247928*
X13247928D02*
X13217928Y13495000D01*
X13217928D02*
X13025000D01*
X12157928Y12645000D02*
X12095000Y12582071D01*
Y11537928*
X12095000D02*
X12275000Y11357928D01*
X12275000D02*
Y11105000D01*
X11072071*
X10835000Y11342071*
Y12002071*
X10742071Y12095000*
X10185000*
Y12777928*
X10185000D02*
X10352071Y12945000D01*
X12305000*
Y12645000*
X12157928*
X12575000Y12803437D02*
Y13127928D01*
X12575000D02*
X12842071Y13395000D01*
X13212071*
X13252071Y13435000*
X13837928*
X13837928D02*
X14082928Y13190000D01*
X14082928D02*
X14692928D01*
X14692928D02*
X14795000Y13087928D01*
X14795000D02*
Y12459571D01*
X14514178Y12178750*
X14514178D02*
X13522071D01*
X13301875Y12398946*
Y12702071*
X13200508Y12803437*
X13200508D02*
X12575000D01*
X12586250Y12755000D02*
X13187928D01*
X13187928D02*
X13255000Y12687928D01*
X13255000D02*
Y11562071D01*
X13197928Y11505000*
X13197928D02*
X12212071D01*
X12145000Y11572071*
Y11847928*
X12145000D02*
X12152071Y11855000D01*
X12247928*
X12247928D02*
X12357928Y11745000D01*
X12357928D02*
X12912071D01*
X12985000Y11817928*
X12985000D02*
Y12612071D01*
X12979571Y12617500*
X12672071*
X12586250Y12703321*
Y12755000*
X10435000Y11455000D02*
X13232071D01*
X13305000Y11527928*
X13305000D02*
Y12595000D01*
X14795000*
Y11502071*
X14197928Y10905000*
X14197928D02*
X10702071D01*
X10435000Y11172071*
Y11455000*
X12245000Y13755000D02*
Y13462071D01*
X12457071Y13250000*
X12485000*
Y13755000*
X12245000*
X10185000Y12255000D02*
Y11292071D01*
X10567071Y10910000*
X10777928*
X10777928D02*
X10992500Y11124571D01*
Y11595000*
X10892071*
X10747071Y11450000*
X10587928*
X10587928D02*
X10487500Y11550428D01*
X10487500D02*
Y12024571D01*
X10581250Y12118321*
Y12255000*
X10185000*
X12675000Y12675000D02*
Y12432071D01*
X12785000Y12322071*
Y12217928*
X12785000D02*
X12752071Y12185000D01*
X12502071*
X12470000Y12152928*
X12470000D02*
Y12105000D01*
X12862071*
X12920000Y12047071*
Y11952071*
X13014571Y11857500*
X13125000*
Y12637928*
X13125000D02*
X13042928Y12720000D01*
X13042928D02*
X12817928D01*
X12817928D02*
X12787500Y12750428D01*
X12787500D02*
Y12985000D01*
X12575000*
Y12675000*
X12675000*
X10207104Y13139966D02*
X12245000D01*
X10216104Y13130966D02*
X12245000D01*
X10225104Y13121966D02*
X12245000D01*
X10234104Y13112966D02*
X12245000D01*
X10243104Y13103966D02*
X12245000D01*
X10252104Y13094966D02*
X12245000D01*
X10261104Y13085966D02*
X12245000D01*
X10270104Y13076966D02*
X12245000D01*
X10279104Y13067966D02*
X12245000D01*
X10288104Y13058966D02*
X12245000D01*
X10297104Y13049966D02*
X12245000D01*
X10306104Y13040966D02*
X12245000D01*
X10315104Y13031966D02*
X12245000D01*
X10324104Y13022966D02*
X12245000D01*
X10333104Y13013966D02*
X12245000D01*
X10198104Y13148966D02*
X12243962D01*
X10189104Y13157966D02*
X12234962D01*
X10185000Y13166966D02*
X12225962D01*
X10185000Y13175966D02*
X12216962D01*
X10185000Y13184966D02*
X12207962D01*
X10185000Y13193966D02*
X12198962D01*
X10185000Y13202966D02*
X12189962D01*
X10185000Y13211966D02*
X12180962D01*
X10185000Y13220966D02*
X12081962D01*
X10185000Y13229966D02*
X12072962D01*
X10185000Y13238966D02*
X12063962D01*
X10185000Y13247966D02*
X12054962D01*
X10185000Y13256966D02*
X12045962D01*
X10185000Y13265966D02*
X12036962D01*
X10774037Y14156966D02*
X12035000D01*
X10765037Y14147966D02*
X12035000D01*
X10756037Y14138966D02*
X12035000D01*
X10747037Y14129966D02*
X12035000D01*
X10738037Y14120966D02*
X12035000D01*
X10729037Y14111966D02*
X12035000D01*
X10720037Y14102966D02*
X12035000D01*
X10711037Y14093966D02*
X12035000D01*
X10702037Y14084966D02*
X12035000D01*
X10693037Y14075966D02*
X12035000D01*
X10684037Y14066966D02*
X12035000D01*
X10675037Y14057966D02*
X12035000D01*
X10666037Y14048966D02*
X12035000D01*
X10657037Y14039966D02*
X12035000D01*
X10648037Y14030966D02*
X12035000D01*
X10639037Y14021966D02*
X12035000D01*
X10630037Y14012966D02*
X12035000D01*
X10621037Y14003966D02*
X12035000D01*
X10612037Y13994966D02*
X12035000D01*
X10603037Y13985966D02*
X12035000D01*
X10594037Y13976966D02*
X12035000D01*
X10585037Y13967966D02*
X12035000D01*
X10576037Y13958966D02*
X12035000D01*
X10567037Y13949966D02*
X12035000D01*
X10558037Y13940966D02*
X12035000D01*
X10549037Y13931966D02*
X12035000D01*
X10540037Y13922966D02*
X12035000D01*
X10531037Y13913966D02*
X12035000D01*
X10522037Y13904966D02*
X12035000D01*
X10513037Y13895966D02*
X12035000D01*
X10504037Y13886966D02*
X12035000D01*
X10495037Y13877966D02*
X12035000D01*
X10486037Y13868966D02*
X12035000D01*
X10477037Y13859966D02*
X12035000D01*
X10468037Y13850966D02*
X12035000D01*
X10459037Y13841966D02*
X12035000D01*
X10450037Y13832966D02*
X12035000D01*
X10441037Y13823966D02*
X12035000D01*
X10432037Y13814966D02*
X12035000D01*
X10423037Y13805966D02*
X12035000D01*
X10414037Y13796966D02*
X12035000D01*
X10405037Y13787966D02*
X12035000D01*
X10396037Y13778966D02*
X12035000D01*
X10387037Y13769966D02*
X12035000D01*
X10378037Y13760966D02*
X12035000D01*
X10369037Y13751966D02*
X12035000D01*
X10360037Y13742966D02*
X12035000D01*
X10351037Y13733966D02*
X12035000D01*
X10342037Y13724966D02*
X12035000D01*
X10333037Y13715966D02*
X12035000D01*
X10324037Y13706966D02*
X12035000D01*
X10315037Y13697966D02*
X12035000D01*
X10306037Y13688966D02*
X12035000D01*
X10297037Y13679966D02*
X12035000D01*
X10288037Y13670966D02*
X12035000D01*
X10279037Y13661966D02*
X12035000D01*
X10270037Y13652966D02*
X12035000D01*
X10261037Y13643966D02*
X12035000D01*
X10252037Y13634966D02*
X12035000D01*
X10243037Y13625966D02*
X12035000D01*
X10234037Y13616966D02*
X12035000D01*
X10225037Y13607966D02*
X12035000D01*
X10216037Y13598966D02*
X12035000D01*
X10207037Y13589966D02*
X12035000D01*
X10198037Y13580966D02*
X12035000D01*
X10189037Y13571966D02*
X12035000D01*
X10185000Y13562966D02*
X12035000D01*
X10185000Y13553966D02*
X12035000D01*
X10185000Y13544966D02*
X12035000D01*
X10185000Y13535966D02*
X12035000D01*
X10185000Y13526966D02*
X12035000D01*
X10185000Y13517966D02*
X12035000D01*
X10185000Y13508966D02*
X12035000D01*
X10185000Y13499966D02*
X12035000D01*
X10185000Y13490966D02*
X12035000D01*
X10185000Y13481966D02*
X12035000D01*
X10185000Y13472966D02*
X12035000D01*
X10185000Y13463966D02*
X12035000D01*
X10185000Y13454966D02*
X12035000D01*
X10185000Y13445966D02*
X12035000D01*
X10185000Y13436966D02*
X12035000D01*
X10185000Y13427966D02*
X12035000D01*
X10185000Y13418966D02*
X12035000D01*
X10185000Y13409966D02*
X12035000D01*
X10185000Y13400966D02*
X12035000D01*
X10185000Y13391966D02*
X12035000D01*
X10185000Y13382966D02*
X12035000D01*
X10185000Y13373966D02*
X12035000D01*
X10185000Y13364966D02*
X12035000D01*
X10185000Y13355966D02*
X12035000D01*
X10185000Y13346966D02*
X12035000D01*
X10185000Y13337966D02*
X12035000D01*
X10185000Y13328966D02*
X12035000D01*
X10185000Y13319966D02*
X12035000D01*
X10185000Y13310966D02*
X12035000D01*
X10185000Y13301966D02*
X12035000D01*
X10185000Y13292966D02*
X12035000D01*
X10185000Y13283966D02*
X12035000D01*
X10185000Y13274966D02*
X12035000D01*
X10783037Y14165966D02*
X12026962D01*
X10792037Y14174966D02*
X12017962D01*
X10801037Y14183966D02*
X12008962D01*
X10810037Y14192966D02*
X11999962D01*
X12273104Y13703966D02*
X12575000D01*
X12282104Y13694966D02*
X12575000D01*
X12291104Y13685966D02*
X12575000D01*
X12300104Y13676966D02*
X12575000D01*
X12309104Y13667966D02*
X12575000D01*
X12318104Y13658966D02*
X12575000D01*
X12327104Y13649966D02*
X12575000D01*
X12336104Y13640966D02*
X12575000D01*
X12345104Y13631966D02*
X12575000D01*
X12354104Y13622966D02*
X12575000D01*
X12363104Y13613966D02*
X12575000D01*
X12372104Y13604966D02*
X12575000D01*
X12381104Y13595966D02*
X12575000D01*
X12390104Y13586966D02*
X12575000D01*
X12399104Y13577966D02*
X12575000D01*
X12408104Y13568966D02*
X12575000D01*
X12417104Y13559966D02*
X12575000D01*
X12425000Y13550966D02*
X12575000D01*
X12425000Y13541966D02*
X12575000D01*
X12425000Y13532966D02*
X12575000D01*
X12425000Y13523966D02*
X12575000D01*
X12425000Y13514966D02*
X12575000D01*
X12425000Y13505966D02*
X12575000D01*
X12425000Y13496966D02*
X12575000D01*
X12425000Y13487966D02*
X12575000D01*
X12425000Y13478966D02*
X12575000D01*
X12425000Y13469966D02*
X12575000D01*
X12425000Y13460966D02*
X12575000D01*
X12425000Y13451966D02*
X12575000D01*
X12425000Y13442966D02*
X12575000D01*
X12425000Y13433966D02*
X12575000D01*
X12425000Y13424966D02*
X12575000D01*
X12425000Y13415966D02*
X12575000D01*
X12425000Y13406966D02*
X12575000D01*
X12425000Y13397966D02*
X12575000D01*
X12425000Y13388966D02*
X12575000D01*
X12425000Y13379966D02*
X12575000D01*
X12425000Y13370966D02*
X12575000D01*
X12425000Y13361966D02*
X12575000D01*
X12425000Y13352966D02*
X12575000D01*
X12425000Y13343966D02*
X12575000D01*
X12425000Y13334966D02*
X12575000D01*
X12425000Y13325966D02*
X12575000D01*
X12425000Y13316966D02*
X12575000D01*
X12425000Y13307966D02*
X12575000D01*
X12425000Y13298966D02*
X12575000D01*
X12425000Y13289966D02*
X12575000D01*
X12425000Y13280966D02*
X12575000D01*
X12425000Y13271966D02*
X12575000D01*
X12425000Y13262966D02*
X12575000D01*
X12425000Y13253966D02*
X12575000D01*
X12425000Y13244966D02*
X12575000D01*
X12425000Y13235966D02*
X12575000D01*
X12425000Y13226966D02*
X12575000D01*
X12425000Y13217966D02*
X12570895D01*
X12264104Y13712966D02*
X12569962D01*
X12425000Y13208966D02*
X12561895D01*
X12255104Y13721966D02*
X12560962D01*
X12425000Y13199966D02*
X12552895D01*
X12246104Y13730966D02*
X12551962D01*
X12425000Y13190966D02*
X12543895D01*
X12237104Y13739966D02*
X12542962D01*
X12425000Y13181966D02*
X12534895D01*
X12175000Y13748966D02*
X12533962D01*
X12425000Y13172966D02*
X12525895D01*
X12175000Y13757966D02*
X12524962D01*
X12425000Y13163966D02*
X12516895D01*
X12175000Y13766966D02*
X12515962D01*
X12425000Y13154966D02*
X12507895D01*
X12175000Y13775966D02*
X12506962D01*
X12425000Y13145966D02*
X12498895D01*
X12175000Y13784966D02*
X12497962D01*
X12425000Y13136966D02*
X12495000D01*
X12425000Y13127966D02*
X12495000D01*
X12425000Y13118966D02*
X12495000D01*
X12425000Y13109966D02*
X12495000D01*
X12425000Y13100966D02*
X12495000D01*
X12425000Y13091966D02*
X12495000D01*
X12425000Y13082966D02*
X12495000D01*
X12425000Y13073966D02*
X12495000D01*
X12175000Y13793966D02*
X12488962D01*
X12175000Y13802966D02*
X12479962D01*
X12175000Y13811966D02*
X12470962D01*
X12175000Y13820966D02*
X12461962D01*
X12175000Y13829966D02*
X12452962D01*
X12176037Y13838966D02*
X12443962D01*
X13025000Y14035966D02*
X14795000D01*
X13025000Y14026966D02*
X14795000D01*
X13025000Y14017966D02*
X14795000D01*
X13025000Y14008966D02*
X14795000D01*
X13025000Y13999966D02*
X14795000D01*
X13025000Y13990966D02*
X14795000D01*
X13025000Y13981966D02*
X14795000D01*
X13025000Y13972966D02*
X14795000D01*
X13025000Y13963966D02*
X14795000D01*
X13025000Y13954966D02*
X14795000D01*
X13025000Y13945966D02*
X14795000D01*
X13025000Y13936966D02*
X14795000D01*
X13025000Y13927966D02*
X14795000D01*
X13025000Y13918966D02*
X14795000D01*
X13025000Y13909966D02*
X14795000D01*
X13025000Y13900966D02*
X14795000D01*
X13025000Y13891966D02*
X14795000D01*
X13025000Y13882966D02*
X14795000D01*
X13025000Y13873966D02*
X14795000D01*
X13025000Y13864966D02*
X14795000D01*
X13025000Y13855966D02*
X14795000D01*
X13025000Y13846966D02*
X14795000D01*
X13025000Y13837966D02*
X14795000D01*
X13025000Y13828966D02*
X14795000D01*
X13025000Y13819966D02*
X14795000D01*
X13025000Y13810966D02*
X14795000D01*
X13025000Y13801966D02*
X14795000D01*
X13025000Y13792966D02*
X14795000D01*
X13025000Y13783966D02*
X14795000D01*
X13025000Y13774966D02*
X14795000D01*
X13025000Y13765966D02*
X14795000D01*
X13025000Y13756966D02*
X14795000D01*
X13025000Y13747966D02*
X14795000D01*
X13025000Y13738966D02*
X14795000D01*
X13025000Y13729966D02*
X14795000D01*
X13025000Y13720966D02*
X14795000D01*
X13025000Y13711966D02*
X14795000D01*
X13025000Y13702966D02*
X14795000D01*
X13025000Y13693966D02*
X14795000D01*
X13025000Y13684966D02*
X14795000D01*
X13025000Y13675966D02*
X14795000D01*
X13025000Y13666966D02*
X14795000D01*
X13025000Y13657966D02*
X14795000D01*
X13025000Y13648966D02*
X14795000D01*
X13025000Y13639966D02*
X14795000D01*
X13025000Y13630966D02*
X14795000D01*
X13025000Y13621966D02*
X14795000D01*
X13025000Y13612966D02*
X14795000D01*
X13025000Y13603966D02*
X14795000D01*
X13025000Y13594966D02*
X14795000D01*
X13025000Y13585966D02*
X14795000D01*
X13025000Y13576966D02*
X14795000D01*
X13025000Y13567966D02*
X14795000D01*
X13025000Y13558966D02*
X14795000D01*
X13025000Y13549966D02*
X14795000D01*
X13025000Y13540966D02*
X14795000D01*
X13025000Y13531966D02*
X14795000D01*
X13884104Y13522966D02*
X14795000D01*
X13893104Y13513966D02*
X14795000D01*
X13902104Y13504966D02*
X14795000D01*
X13911104Y13495966D02*
X14795000D01*
X13920104Y13486966D02*
X14795000D01*
X13929104Y13477966D02*
X14795000D01*
X13938104Y13468966D02*
X14795000D01*
X13947104Y13459966D02*
X14795000D01*
X13956104Y13450966D02*
X14795000D01*
X13965104Y13441966D02*
X14795000D01*
X13974104Y13432966D02*
X14795000D01*
X13983104Y13423966D02*
X14795000D01*
X13025000Y14044966D02*
X14787962D01*
X13992104Y13414966D02*
X14787895D01*
X13025000Y14053966D02*
X14778962D01*
X14001104Y13405966D02*
X14778895D01*
X13025000Y14062966D02*
X14769962D01*
X14010104Y13396966D02*
X14769895D01*
X13025000Y14071966D02*
X14760962D01*
X14019104Y13387966D02*
X14760895D01*
X13025000Y14080966D02*
X14751962D01*
X14028104Y13378966D02*
X14751895D01*
X14037104Y13369966D02*
X14742895D01*
X14046104Y13360966D02*
X14733895D01*
X14055104Y13351966D02*
X14724895D01*
X14064104Y13342966D02*
X14715895D01*
X14073104Y13333966D02*
X14706895D01*
X13027037Y14089966D02*
X14322962D01*
X13036037Y14098966D02*
X14313962D01*
X13045037Y14107966D02*
X14304962D01*
X13054037Y14116966D02*
X14295962D01*
X13063037Y14125966D02*
X14286962D01*
X13072037Y14134966D02*
X14277962D01*
X13081037Y14143966D02*
X14268962D01*
X13090037Y14152966D02*
X14259962D01*
X13099037Y14161966D02*
X14250962D01*
X13108037Y14170966D02*
X14241962D01*
X13117037Y14179966D02*
X14232962D01*
X13126037Y14188966D02*
X14223962D01*
X13025000Y13522966D02*
X13245895D01*
X13025000Y13513966D02*
X13236895D01*
X13025000Y13504966D02*
X13227895D01*
X13025000Y13495966D02*
X13218895D01*
X10348037Y12940966D02*
X12305000D01*
X10339037Y12931966D02*
X12305000D01*
X10330037Y12922966D02*
X12305000D01*
X10321037Y12913966D02*
X12305000D01*
X10312037Y12904966D02*
X12305000D01*
X10303037Y12895966D02*
X12305000D01*
X10294037Y12886966D02*
X12305000D01*
X10285037Y12877966D02*
X12305000D01*
X10276037Y12868966D02*
X12305000D01*
X10267037Y12859966D02*
X12305000D01*
X10258037Y12850966D02*
X12305000D01*
X10249037Y12841966D02*
X12305000D01*
X10240037Y12832966D02*
X12305000D01*
X10231037Y12823966D02*
X12305000D01*
X10222037Y12814966D02*
X12305000D01*
X10213037Y12805966D02*
X12305000D01*
X10204037Y12796966D02*
X12305000D01*
X10195037Y12787966D02*
X12305000D01*
X10186037Y12778966D02*
X12305000D01*
X10185000Y12769966D02*
X12305000D01*
X10185000Y12760966D02*
X12305000D01*
X10185000Y12751966D02*
X12305000D01*
X10185000Y12742966D02*
X12305000D01*
X10185000Y12733966D02*
X12305000D01*
X10185000Y12724966D02*
X12305000D01*
X10185000Y12715966D02*
X12305000D01*
X10185000Y12706966D02*
X12305000D01*
X10185000Y12697966D02*
X12305000D01*
X10185000Y12688966D02*
X12305000D01*
X10185000Y12679966D02*
X12305000D01*
X10185000Y12670966D02*
X12305000D01*
X10185000Y12661966D02*
X12305000D01*
X10185000Y12652966D02*
X12305000D01*
X10835000Y11356966D02*
X12275000D01*
X10835000Y11347966D02*
X12275000D01*
X10838104Y11338966D02*
X12275000D01*
X10847104Y11329966D02*
X12275000D01*
X10856104Y11320966D02*
X12275000D01*
X10865104Y11311966D02*
X12275000D01*
X10874104Y11302966D02*
X12275000D01*
X10883104Y11293966D02*
X12275000D01*
X10892104Y11284966D02*
X12275000D01*
X10901104Y11275966D02*
X12275000D01*
X10910104Y11266966D02*
X12275000D01*
X10919104Y11257966D02*
X12275000D01*
X10928104Y11248966D02*
X12275000D01*
X10937104Y11239966D02*
X12275000D01*
X10946104Y11230966D02*
X12275000D01*
X10955104Y11221966D02*
X12275000D01*
X10964104Y11212966D02*
X12275000D01*
X10973104Y11203966D02*
X12275000D01*
X10982104Y11194966D02*
X12275000D01*
X10991104Y11185966D02*
X12275000D01*
X11000104Y11176966D02*
X12275000D01*
X11009104Y11167966D02*
X12275000D01*
X11018104Y11158966D02*
X12275000D01*
X11027104Y11149966D02*
X12275000D01*
X11036104Y11140966D02*
X12275000D01*
X11045104Y11131966D02*
X12275000D01*
X11054104Y11122966D02*
X12275000D01*
X11063104Y11113966D02*
X12275000D01*
X10835000Y11365966D02*
X12266962D01*
X10835000Y11374966D02*
X12257962D01*
X10835000Y11383966D02*
X12248962D01*
X10835000Y11392966D02*
X12239962D01*
X10835000Y11401966D02*
X12230962D01*
X10835000Y11410966D02*
X12221962D01*
X10835000Y11419966D02*
X12212962D01*
X10835000Y11428966D02*
X12203962D01*
X10835000Y11437966D02*
X12194962D01*
X10835000Y11446966D02*
X12185962D01*
X10835000Y11455966D02*
X12176962D01*
X10835000Y11464966D02*
X12167962D01*
X10835000Y11473966D02*
X12158962D01*
X10185000Y12643966D02*
X12156895D01*
X10835000Y11482966D02*
X12149962D01*
X10185000Y12634966D02*
X12147895D01*
X10835000Y11491966D02*
X12140962D01*
X10185000Y12625966D02*
X12138895D01*
X10835000Y11500966D02*
X12131962D01*
X10185000Y12616966D02*
X12129895D01*
X10835000Y11509966D02*
X12122962D01*
X10185000Y12607966D02*
X12120895D01*
X10835000Y11518966D02*
X12113962D01*
X10185000Y12598966D02*
X12111895D01*
X10835000Y11527966D02*
X12104962D01*
X10185000Y12589966D02*
X12102895D01*
X10835000Y11536966D02*
X12095962D01*
X10185000Y12580966D02*
X12095000D01*
X10185000Y12571966D02*
X12095000D01*
X10185000Y12562966D02*
X12095000D01*
X10185000Y12553966D02*
X12095000D01*
X10185000Y12544966D02*
X12095000D01*
X10185000Y12535966D02*
X12095000D01*
X10185000Y12526966D02*
X12095000D01*
X10185000Y12517966D02*
X12095000D01*
X10185000Y12508966D02*
X12095000D01*
X10185000Y12499966D02*
X12095000D01*
X10185000Y12490966D02*
X12095000D01*
X10185000Y12481966D02*
X12095000D01*
X10185000Y12472966D02*
X12095000D01*
X10185000Y12463966D02*
X12095000D01*
X10185000Y12454966D02*
X12095000D01*
X10185000Y12445966D02*
X12095000D01*
X10185000Y12436966D02*
X12095000D01*
X10185000Y12427966D02*
X12095000D01*
X10185000Y12418966D02*
X12095000D01*
X10185000Y12409966D02*
X12095000D01*
X10185000Y12400966D02*
X12095000D01*
X10185000Y12391966D02*
X12095000D01*
X10185000Y12382966D02*
X12095000D01*
X10185000Y12373966D02*
X12095000D01*
X10185000Y12364966D02*
X12095000D01*
X10185000Y12355966D02*
X12095000D01*
X10185000Y12346966D02*
X12095000D01*
X10185000Y12337966D02*
X12095000D01*
X10185000Y12328966D02*
X12095000D01*
X10185000Y12319966D02*
X12095000D01*
X10185000Y12310966D02*
X12095000D01*
X10185000Y12301966D02*
X12095000D01*
X10185000Y12292966D02*
X12095000D01*
X10185000Y12283966D02*
X12095000D01*
X10185000Y12274966D02*
X12095000D01*
X10185000Y12265966D02*
X12095000D01*
X10185000Y12256966D02*
X12095000D01*
X10185000Y12247966D02*
X12095000D01*
X10185000Y12238966D02*
X12095000D01*
X10185000Y12229966D02*
X12095000D01*
X10185000Y12220966D02*
X12095000D01*
X10185000Y12211966D02*
X12095000D01*
X10185000Y12202966D02*
X12095000D01*
X10185000Y12193966D02*
X12095000D01*
X10185000Y12184966D02*
X12095000D01*
X10185000Y12175966D02*
X12095000D01*
X10185000Y12166966D02*
X12095000D01*
X10185000Y12157966D02*
X12095000D01*
X10185000Y12148966D02*
X12095000D01*
X10185000Y12139966D02*
X12095000D01*
X10185000Y12130966D02*
X12095000D01*
X10185000Y12121966D02*
X12095000D01*
X10185000Y12112966D02*
X12095000D01*
X10185000Y12103966D02*
X12095000D01*
X10742104Y12094966D02*
X12095000D01*
X10751104Y12085966D02*
X12095000D01*
X10760104Y12076966D02*
X12095000D01*
X10769104Y12067966D02*
X12095000D01*
X10778104Y12058966D02*
X12095000D01*
X10787104Y12049966D02*
X12095000D01*
X10796104Y12040966D02*
X12095000D01*
X10805104Y12031966D02*
X12095000D01*
X10814104Y12022966D02*
X12095000D01*
X10823104Y12013966D02*
X12095000D01*
X10832104Y12004966D02*
X12095000D01*
X10835000Y11995966D02*
X12095000D01*
X10835000Y11986966D02*
X12095000D01*
X10835000Y11977966D02*
X12095000D01*
X10835000Y11968966D02*
X12095000D01*
X10835000Y11959966D02*
X12095000D01*
X10835000Y11950966D02*
X12095000D01*
X10835000Y11941966D02*
X12095000D01*
X10835000Y11932966D02*
X12095000D01*
X10835000Y11923966D02*
X12095000D01*
X10835000Y11914966D02*
X12095000D01*
X10835000Y11905966D02*
X12095000D01*
X10835000Y11896966D02*
X12095000D01*
X10835000Y11887966D02*
X12095000D01*
X10835000Y11878966D02*
X12095000D01*
X10835000Y11869966D02*
X12095000D01*
X10835000Y11860966D02*
X12095000D01*
X10835000Y11851966D02*
X12095000D01*
X10835000Y11842966D02*
X12095000D01*
X10835000Y11833966D02*
X12095000D01*
X10835000Y11824966D02*
X12095000D01*
X10835000Y11815966D02*
X12095000D01*
X10835000Y11806966D02*
X12095000D01*
X10835000Y11797966D02*
X12095000D01*
X10835000Y11788966D02*
X12095000D01*
X10835000Y11779966D02*
X12095000D01*
X10835000Y11770966D02*
X12095000D01*
X10835000Y11761966D02*
X12095000D01*
X10835000Y11752966D02*
X12095000D01*
X10835000Y11743966D02*
X12095000D01*
X10835000Y11734966D02*
X12095000D01*
X10835000Y11725966D02*
X12095000D01*
X10835000Y11716966D02*
X12095000D01*
X10835000Y11707966D02*
X12095000D01*
X10835000Y11698966D02*
X12095000D01*
X10835000Y11689966D02*
X12095000D01*
X10835000Y11680966D02*
X12095000D01*
X10835000Y11671966D02*
X12095000D01*
X10835000Y11662966D02*
X12095000D01*
X10835000Y11653966D02*
X12095000D01*
X10835000Y11644966D02*
X12095000D01*
X10835000Y11635966D02*
X12095000D01*
X10835000Y11626966D02*
X12095000D01*
X10835000Y11617966D02*
X12095000D01*
X10835000Y11608966D02*
X12095000D01*
X10835000Y11599966D02*
X12095000D01*
X10835000Y11590966D02*
X12095000D01*
X10835000Y11581966D02*
X12095000D01*
X10835000Y11572966D02*
X12095000D01*
X10835000Y11563966D02*
X12095000D01*
X10835000Y11554966D02*
X12095000D01*
X10835000Y11545966D02*
X12095000D01*
X12575000Y13087716D02*
X14795000D01*
X12575000Y13078716D02*
X14795000D01*
X12575000Y13069716D02*
X14795000D01*
X12575000Y13060716D02*
X14795000D01*
X12575000Y13051716D02*
X14795000D01*
X12575000Y13042716D02*
X14795000D01*
X12575000Y13033716D02*
X14795000D01*
X12575000Y13024716D02*
X14795000D01*
X12575000Y13015716D02*
X14795000D01*
X12575000Y13006716D02*
X14795000D01*
X12575000Y12997716D02*
X14795000D01*
X12575000Y12988716D02*
X14795000D01*
X12575000Y12979716D02*
X14795000D01*
X12575000Y12970716D02*
X14795000D01*
X12575000Y12961716D02*
X14795000D01*
X12575000Y12952716D02*
X14795000D01*
X12575000Y12943716D02*
X14795000D01*
X12575000Y12934716D02*
X14795000D01*
X12575000Y12925716D02*
X14795000D01*
X12575000Y12916716D02*
X14795000D01*
X12575000Y12907716D02*
X14795000D01*
X12575000Y12898716D02*
X14795000D01*
X12575000Y12889716D02*
X14795000D01*
X12575000Y12880716D02*
X14795000D01*
X12575000Y12871716D02*
X14795000D01*
X12575000Y12862716D02*
X14795000D01*
X12575000Y12853716D02*
X14795000D01*
X12575000Y12844716D02*
X14795000D01*
X12575000Y12835716D02*
X14795000D01*
X12575000Y12826716D02*
X14795000D01*
X12575000Y12817716D02*
X14795000D01*
X12575000Y12808716D02*
X14795000D01*
X13204229Y12799716D02*
X14795000D01*
X13213229Y12790716D02*
X14795000D01*
X13222229Y12781716D02*
X14795000D01*
X13231229Y12772716D02*
X14795000D01*
X13240229Y12763716D02*
X14795000D01*
X13249229Y12754716D02*
X14795000D01*
X13258229Y12745716D02*
X14795000D01*
X13267229Y12736716D02*
X14795000D01*
X13276229Y12727716D02*
X14795000D01*
X13285229Y12718716D02*
X14795000D01*
X13294229Y12709716D02*
X14795000D01*
X13301875Y12700716D02*
X14795000D01*
X13301875Y12691716D02*
X14795000D01*
X13301875Y12682716D02*
X14795000D01*
X13301875Y12673716D02*
X14795000D01*
X13301875Y12664716D02*
X14795000D01*
X13301875Y12655716D02*
X14795000D01*
X13301875Y12646716D02*
X14795000D01*
X13301875Y12637716D02*
X14795000D01*
X13301875Y12628716D02*
X14795000D01*
X13301875Y12619716D02*
X14795000D01*
X13301875Y12610716D02*
X14795000D01*
X13301875Y12601716D02*
X14795000D01*
X13301875Y12592716D02*
X14795000D01*
X13301875Y12583716D02*
X14795000D01*
X13301875Y12574716D02*
X14795000D01*
X13301875Y12565716D02*
X14795000D01*
X13301875Y12556716D02*
X14795000D01*
X13301875Y12547716D02*
X14795000D01*
X13301875Y12538716D02*
X14795000D01*
X13301875Y12529716D02*
X14795000D01*
X13301875Y12520716D02*
X14795000D01*
X13301875Y12511716D02*
X14795000D01*
X13301875Y12502716D02*
X14795000D01*
X13301875Y12493716D02*
X14795000D01*
X13301875Y12484716D02*
X14795000D01*
X13301875Y12475716D02*
X14795000D01*
X13301875Y12466716D02*
X14795000D01*
X13301875Y12457716D02*
X14793145D01*
X12575000Y13096716D02*
X14786212D01*
X13301875Y12448716D02*
X14784145D01*
X12575000Y13105716D02*
X14777212D01*
X13301875Y12439716D02*
X14775145D01*
X12575000Y13114716D02*
X14768212D01*
X13301875Y12430716D02*
X14766145D01*
X12575000Y13123716D02*
X14759212D01*
X13301875Y12421716D02*
X14757145D01*
X12579787Y13132716D02*
X14750212D01*
X13301875Y12412716D02*
X14748145D01*
X12588787Y13141716D02*
X14741212D01*
X13301875Y12403716D02*
X14739145D01*
X12597787Y13150716D02*
X14732212D01*
X13306104Y12394716D02*
X14730145D01*
X12606787Y13159716D02*
X14723212D01*
X13315104Y12385716D02*
X14721145D01*
X12615787Y13168716D02*
X14714212D01*
X13324104Y12376716D02*
X14712145D01*
X12624787Y13177716D02*
X14705212D01*
X13333104Y12367716D02*
X14703145D01*
X12633787Y13186716D02*
X14696212D01*
X13342104Y12358716D02*
X14694145D01*
X13351104Y12349716D02*
X14685145D01*
X13360104Y12340716D02*
X14676145D01*
X13369104Y12331716D02*
X14667145D01*
X13378104Y12322716D02*
X14658145D01*
X13387104Y12313716D02*
X14649145D01*
X13396104Y12304716D02*
X14640145D01*
X13405104Y12295716D02*
X14631145D01*
X13414104Y12286716D02*
X14622145D01*
X13423104Y12277716D02*
X14613145D01*
X13432104Y12268716D02*
X14604145D01*
X13441104Y12259716D02*
X14595145D01*
X13450104Y12250716D02*
X14586145D01*
X13459104Y12241716D02*
X14577145D01*
X13468104Y12232716D02*
X14568145D01*
X13477104Y12223716D02*
X14559145D01*
X13486104Y12214716D02*
X14550145D01*
X13495104Y12205716D02*
X14541145D01*
X13504104Y12196716D02*
X14532145D01*
X13513104Y12187716D02*
X14523145D01*
X12642787Y13195716D02*
X14077212D01*
X12651787Y13204716D02*
X14068212D01*
X12660787Y13213716D02*
X14059212D01*
X12669787Y13222716D02*
X14050212D01*
X12678787Y13231716D02*
X14041212D01*
X12687787Y13240716D02*
X14032212D01*
X12696787Y13249716D02*
X14023212D01*
X12705787Y13258716D02*
X14014212D01*
X12714787Y13267716D02*
X14005212D01*
X12723787Y13276716D02*
X13996212D01*
X12732787Y13285716D02*
X13987212D01*
X12741787Y13294716D02*
X13978212D01*
X12750787Y13303716D02*
X13969212D01*
X12759787Y13312716D02*
X13960212D01*
X12768787Y13321716D02*
X13951212D01*
X12777787Y13330716D02*
X13942212D01*
X12786787Y13339716D02*
X13933212D01*
X12795787Y13348716D02*
X13924212D01*
X12804787Y13357716D02*
X13915212D01*
X12813787Y13366716D02*
X13906212D01*
X12822787Y13375716D02*
X13897212D01*
X12831787Y13384716D02*
X13888212D01*
X12840787Y13393716D02*
X13879212D01*
X13219787Y13402716D02*
X13870212D01*
X13228787Y13411716D02*
X13861212D01*
X13237787Y13420716D02*
X13852212D01*
X13246787Y13429716D02*
X13843212D01*
X12605604Y12683966D02*
X13255000D01*
X12614604Y12674966D02*
X13255000D01*
X12623604Y12665966D02*
X13255000D01*
X12632604Y12656966D02*
X13255000D01*
X12641604Y12647966D02*
X13255000D01*
X12650604Y12638966D02*
X13255000D01*
X12659604Y12629966D02*
X13255000D01*
X12668604Y12620966D02*
X13255000D01*
X12985000Y12611966D02*
X13255000D01*
X12985000Y12602966D02*
X13255000D01*
X12985000Y12593966D02*
X13255000D01*
X12985000Y12584966D02*
X13255000D01*
X12985000Y12575966D02*
X13255000D01*
X12985000Y12566966D02*
X13255000D01*
X12985000Y12557966D02*
X13255000D01*
X12985000Y12548966D02*
X13255000D01*
X12985000Y12539966D02*
X13255000D01*
X12985000Y12530966D02*
X13255000D01*
X12985000Y12521966D02*
X13255000D01*
X12985000Y12512966D02*
X13255000D01*
X12985000Y12503966D02*
X13255000D01*
X12985000Y12494966D02*
X13255000D01*
X12985000Y12485966D02*
X13255000D01*
X12985000Y12476966D02*
X13255000D01*
X12985000Y12467966D02*
X13255000D01*
X12985000Y12458966D02*
X13255000D01*
X12985000Y12449966D02*
X13255000D01*
X12985000Y12440966D02*
X13255000D01*
X12985000Y12431966D02*
X13255000D01*
X12985000Y12422966D02*
X13255000D01*
X12985000Y12413966D02*
X13255000D01*
X12985000Y12404966D02*
X13255000D01*
X12985000Y12395966D02*
X13255000D01*
X12985000Y12386966D02*
X13255000D01*
X12985000Y12377966D02*
X13255000D01*
X12985000Y12368966D02*
X13255000D01*
X12985000Y12359966D02*
X13255000D01*
X12985000Y12350966D02*
X13255000D01*
X12985000Y12341966D02*
X13255000D01*
X12985000Y12332966D02*
X13255000D01*
X12985000Y12323966D02*
X13255000D01*
X12985000Y12314966D02*
X13255000D01*
X12985000Y12305966D02*
X13255000D01*
X12985000Y12296966D02*
X13255000D01*
X12985000Y12287966D02*
X13255000D01*
X12985000Y12278966D02*
X13255000D01*
X12985000Y12269966D02*
X13255000D01*
X12985000Y12260966D02*
X13255000D01*
X12985000Y12251966D02*
X13255000D01*
X12985000Y12242966D02*
X13255000D01*
X12985000Y12233966D02*
X13255000D01*
X12985000Y12224966D02*
X13255000D01*
X12985000Y12215966D02*
X13255000D01*
X12985000Y12206966D02*
X13255000D01*
X12985000Y12197966D02*
X13255000D01*
X12985000Y12188966D02*
X13255000D01*
X12985000Y12179966D02*
X13255000D01*
X12985000Y12170966D02*
X13255000D01*
X12985000Y12161966D02*
X13255000D01*
X12985000Y12152966D02*
X13255000D01*
X12985000Y12143966D02*
X13255000D01*
X12985000Y12134966D02*
X13255000D01*
X12985000Y12125966D02*
X13255000D01*
X12985000Y12116966D02*
X13255000D01*
X12985000Y12107966D02*
X13255000D01*
X12985000Y12098966D02*
X13255000D01*
X12985000Y12089966D02*
X13255000D01*
X12985000Y12080966D02*
X13255000D01*
X12985000Y12071966D02*
X13255000D01*
X12985000Y12062966D02*
X13255000D01*
X12985000Y12053966D02*
X13255000D01*
X12985000Y12044966D02*
X13255000D01*
X12985000Y12035966D02*
X13255000D01*
X12985000Y12026966D02*
X13255000D01*
X12985000Y12017966D02*
X13255000D01*
X12985000Y12008966D02*
X13255000D01*
X12985000Y11999966D02*
X13255000D01*
X12985000Y11990966D02*
X13255000D01*
X12985000Y11981966D02*
X13255000D01*
X12985000Y11972966D02*
X13255000D01*
X12985000Y11963966D02*
X13255000D01*
X12985000Y11954966D02*
X13255000D01*
X12985000Y11945966D02*
X13255000D01*
X12985000Y11936966D02*
X13255000D01*
X12985000Y11927966D02*
X13255000D01*
X12985000Y11918966D02*
X13255000D01*
X12985000Y11909966D02*
X13255000D01*
X12985000Y11900966D02*
X13255000D01*
X12985000Y11891966D02*
X13255000D01*
X12985000Y11882966D02*
X13255000D01*
X12985000Y11873966D02*
X13255000D01*
X12985000Y11864966D02*
X13255000D01*
X12985000Y11855966D02*
X13255000D01*
X12985000Y11846966D02*
X13255000D01*
X12985000Y11837966D02*
X13255000D01*
X12985000Y11828966D02*
X13255000D01*
X12985000Y11819966D02*
X13255000D01*
X12978037Y11810966D02*
X13255000D01*
X12969037Y11801966D02*
X13255000D01*
X12960037Y11792966D02*
X13255000D01*
X12951037Y11783966D02*
X13255000D01*
X12942037Y11774966D02*
X13255000D01*
X12933037Y11765966D02*
X13255000D01*
X12924037Y11756966D02*
X13255000D01*
X12915037Y11747966D02*
X13255000D01*
X12145000Y11738966D02*
X13255000D01*
X12145000Y11729966D02*
X13255000D01*
X12145000Y11720966D02*
X13255000D01*
X12145000Y11711966D02*
X13255000D01*
X12145000Y11702966D02*
X13255000D01*
X12145000Y11693966D02*
X13255000D01*
X12145000Y11684966D02*
X13255000D01*
X12145000Y11675966D02*
X13255000D01*
X12145000Y11666966D02*
X13255000D01*
X12145000Y11657966D02*
X13255000D01*
X12145000Y11648966D02*
X13255000D01*
X12145000Y11639966D02*
X13255000D01*
X12145000Y11630966D02*
X13255000D01*
X12145000Y11621966D02*
X13255000D01*
X12145000Y11612966D02*
X13255000D01*
X12145000Y11603966D02*
X13255000D01*
X12145000Y11594966D02*
X13255000D01*
X12145000Y11585966D02*
X13255000D01*
X12145000Y11576966D02*
X13255000D01*
X12149104Y11567966D02*
X13255000D01*
X12158104Y11558966D02*
X13251895D01*
X12596604Y12692966D02*
X13249962D01*
X12167104Y11549966D02*
X13242895D01*
X12587604Y12701966D02*
X13240962D01*
X12176104Y11540966D02*
X13233895D01*
X12586250Y12710966D02*
X13231962D01*
X12185104Y11531966D02*
X13224895D01*
X12586250Y12719966D02*
X13222962D01*
X12194104Y11522966D02*
X13215895D01*
X12586250Y12728966D02*
X13213962D01*
X12203104Y11513966D02*
X13206895D01*
X12586250Y12737966D02*
X13204962D01*
X12586250Y12746966D02*
X13195962D01*
X12145000Y11747966D02*
X12354962D01*
X12145000Y11756966D02*
X12345962D01*
X12145000Y11765966D02*
X12336962D01*
X12145000Y11774966D02*
X12327962D01*
X12145000Y11783966D02*
X12318962D01*
X12145000Y11792966D02*
X12309962D01*
X12145000Y11801966D02*
X12300962D01*
X12145000Y11810966D02*
X12291962D01*
X12145000Y11819966D02*
X12282962D01*
X12145000Y11828966D02*
X12273962D01*
X12145000Y11837966D02*
X12264962D01*
X12145000Y11846966D02*
X12255962D01*
X13305000Y12587966D02*
X14795000D01*
X13305000Y12578966D02*
X14795000D01*
X13305000Y12569966D02*
X14795000D01*
X13305000Y12560966D02*
X14795000D01*
X13305000Y12551966D02*
X14795000D01*
X13305000Y12542966D02*
X14795000D01*
X13305000Y12533966D02*
X14795000D01*
X13305000Y12524966D02*
X14795000D01*
X13305000Y12515966D02*
X14795000D01*
X13305000Y12506966D02*
X14795000D01*
X13305000Y12497966D02*
X14795000D01*
X13305000Y12488966D02*
X14795000D01*
X13305000Y12479966D02*
X14795000D01*
X13305000Y12470966D02*
X14795000D01*
X13305000Y12461966D02*
X14795000D01*
X13305000Y12452966D02*
X14795000D01*
X13305000Y12443966D02*
X14795000D01*
X13305000Y12434966D02*
X14795000D01*
X13305000Y12425966D02*
X14795000D01*
X13305000Y12416966D02*
X14795000D01*
X13305000Y12407966D02*
X14795000D01*
X13305000Y12398966D02*
X14795000D01*
X13305000Y12389966D02*
X14795000D01*
X13305000Y12380966D02*
X14795000D01*
X13305000Y12371966D02*
X14795000D01*
X13305000Y12362966D02*
X14795000D01*
X13305000Y12353966D02*
X14795000D01*
X13305000Y12344966D02*
X14795000D01*
X13305000Y12335966D02*
X14795000D01*
X13305000Y12326966D02*
X14795000D01*
X13305000Y12317966D02*
X14795000D01*
X13305000Y12308966D02*
X14795000D01*
X13305000Y12299966D02*
X14795000D01*
X13305000Y12290966D02*
X14795000D01*
X13305000Y12281966D02*
X14795000D01*
X13305000Y12272966D02*
X14795000D01*
X13305000Y12263966D02*
X14795000D01*
X13305000Y12254966D02*
X14795000D01*
X13305000Y12245966D02*
X14795000D01*
X13305000Y12236966D02*
X14795000D01*
X13305000Y12227966D02*
X14795000D01*
X13305000Y12218966D02*
X14795000D01*
X13305000Y12209966D02*
X14795000D01*
X13305000Y12200966D02*
X14795000D01*
X13305000Y12191966D02*
X14795000D01*
X13305000Y12182966D02*
X14795000D01*
X13305000Y12173966D02*
X14795000D01*
X13305000Y12164966D02*
X14795000D01*
X13305000Y12155966D02*
X14795000D01*
X13305000Y12146966D02*
X14795000D01*
X13305000Y12137966D02*
X14795000D01*
X13305000Y12128966D02*
X14795000D01*
X13305000Y12119966D02*
X14795000D01*
X13305000Y12110966D02*
X14795000D01*
X13305000Y12101966D02*
X14795000D01*
X13305000Y12092966D02*
X14795000D01*
X13305000Y12083966D02*
X14795000D01*
X13305000Y12074966D02*
X14795000D01*
X13305000Y12065966D02*
X14795000D01*
X13305000Y12056966D02*
X14795000D01*
X13305000Y12047966D02*
X14795000D01*
X13305000Y12038966D02*
X14795000D01*
X13305000Y12029966D02*
X14795000D01*
X13305000Y12020966D02*
X14795000D01*
X13305000Y12011966D02*
X14795000D01*
X13305000Y12002966D02*
X14795000D01*
X13305000Y11993966D02*
X14795000D01*
X13305000Y11984966D02*
X14795000D01*
X13305000Y11975966D02*
X14795000D01*
X13305000Y11966966D02*
X14795000D01*
X13305000Y11957966D02*
X14795000D01*
X13305000Y11948966D02*
X14795000D01*
X13305000Y11939966D02*
X14795000D01*
X13305000Y11930966D02*
X14795000D01*
X13305000Y11921966D02*
X14795000D01*
X13305000Y11912966D02*
X14795000D01*
X13305000Y11903966D02*
X14795000D01*
X13305000Y11894966D02*
X14795000D01*
X13305000Y11885966D02*
X14795000D01*
X13305000Y11876966D02*
X14795000D01*
X13305000Y11867966D02*
X14795000D01*
X13305000Y11858966D02*
X14795000D01*
X13305000Y11849966D02*
X14795000D01*
X13305000Y11840966D02*
X14795000D01*
X13305000Y11831966D02*
X14795000D01*
X13305000Y11822966D02*
X14795000D01*
X13305000Y11813966D02*
X14795000D01*
X13305000Y11804966D02*
X14795000D01*
X13305000Y11795966D02*
X14795000D01*
X13305000Y11786966D02*
X14795000D01*
X13305000Y11777966D02*
X14795000D01*
X13305000Y11768966D02*
X14795000D01*
X13305000Y11759966D02*
X14795000D01*
X13305000Y11750966D02*
X14795000D01*
X13305000Y11741966D02*
X14795000D01*
X13305000Y11732966D02*
X14795000D01*
X13305000Y11723966D02*
X14795000D01*
X13305000Y11714966D02*
X14795000D01*
X13305000Y11705966D02*
X14795000D01*
X13305000Y11696966D02*
X14795000D01*
X13305000Y11687966D02*
X14795000D01*
X13305000Y11678966D02*
X14795000D01*
X13305000Y11669966D02*
X14795000D01*
X13305000Y11660966D02*
X14795000D01*
X13305000Y11651966D02*
X14795000D01*
X13305000Y11642966D02*
X14795000D01*
X13305000Y11633966D02*
X14795000D01*
X13305000Y11624966D02*
X14795000D01*
X13305000Y11615966D02*
X14795000D01*
X13305000Y11606966D02*
X14795000D01*
X13305000Y11597966D02*
X14795000D01*
X13305000Y11588966D02*
X14795000D01*
X13305000Y11579966D02*
X14795000D01*
X13305000Y11570966D02*
X14795000D01*
X13305000Y11561966D02*
X14795000D01*
X13305000Y11552966D02*
X14795000D01*
X13305000Y11543966D02*
X14795000D01*
X13305000Y11534966D02*
X14795000D01*
X13303037Y11525966D02*
X14795000D01*
X13294037Y11516966D02*
X14795000D01*
X13285037Y11507966D02*
X14795000D01*
X13276037Y11498966D02*
X14791895D01*
X13267037Y11489966D02*
X14782895D01*
X13258037Y11480966D02*
X14773895D01*
X13249037Y11471966D02*
X14764895D01*
X13240037Y11462966D02*
X14755895D01*
X10435000Y11453966D02*
X14746895D01*
X10435000Y11444966D02*
X14737895D01*
X10435000Y11435966D02*
X14728895D01*
X10435000Y11426966D02*
X14719895D01*
X10435000Y11417966D02*
X14710895D01*
X10435000Y11408966D02*
X14701895D01*
X10435000Y11399966D02*
X14692895D01*
X10435000Y11390966D02*
X14683895D01*
X10435000Y11381966D02*
X14674895D01*
X10435000Y11372966D02*
X14665895D01*
X10435000Y11363966D02*
X14656895D01*
X10435000Y11354966D02*
X14647895D01*
X10435000Y11345966D02*
X14638895D01*
X10435000Y11336966D02*
X14629895D01*
X10435000Y11327966D02*
X14620895D01*
X10435000Y11318966D02*
X14611895D01*
X10435000Y11309966D02*
X14602895D01*
X10435000Y11300966D02*
X14593895D01*
X10435000Y11291966D02*
X14584895D01*
X10435000Y11282966D02*
X14575895D01*
X10435000Y11273966D02*
X14566895D01*
X10435000Y11264966D02*
X14557895D01*
X10435000Y11255966D02*
X14548895D01*
X10435000Y11246966D02*
X14539895D01*
X10435000Y11237966D02*
X14530895D01*
X10435000Y11228966D02*
X14521895D01*
X10435000Y11219966D02*
X14512895D01*
X10435000Y11210966D02*
X14503895D01*
X10435000Y11201966D02*
X14494895D01*
X10435000Y11192966D02*
X14485895D01*
X10435000Y11183966D02*
X14476895D01*
X10435000Y11174966D02*
X14467895D01*
X10441104Y11165966D02*
X14458895D01*
X10450104Y11156966D02*
X14449895D01*
X10459104Y11147966D02*
X14440895D01*
X10468104Y11138966D02*
X14431895D01*
X10477104Y11129966D02*
X14422895D01*
X10486104Y11120966D02*
X14413895D01*
X10495104Y11111966D02*
X14404895D01*
X10504104Y11102966D02*
X14395895D01*
X10513104Y11093966D02*
X14386895D01*
X10522104Y11084966D02*
X14377895D01*
X10531104Y11075966D02*
X14368895D01*
X10540104Y11066966D02*
X14359895D01*
X10549104Y11057966D02*
X14350895D01*
X10558104Y11048966D02*
X14341895D01*
X10567104Y11039966D02*
X14332895D01*
X10576104Y11030966D02*
X14323895D01*
X10585104Y11021966D02*
X14314895D01*
X10594104Y11012966D02*
X14305895D01*
X10603104Y11003966D02*
X14296895D01*
X10612104Y10994966D02*
X14287895D01*
X10621104Y10985966D02*
X14278895D01*
X10630104Y10976966D02*
X14269895D01*
X10639104Y10967966D02*
X14260895D01*
X10648104Y10958966D02*
X14251895D01*
X10657104Y10949966D02*
X14242895D01*
X10666104Y10940966D02*
X14233895D01*
X10675104Y10931966D02*
X14224895D01*
X10684104Y10922966D02*
X14215895D01*
X10693104Y10913966D02*
X14206895D01*
X12245000Y13753966D02*
X12485000D01*
X12245000Y13744966D02*
X12485000D01*
X12245000Y13735966D02*
X12485000D01*
X12245000Y13726966D02*
X12485000D01*
X12245000Y13717966D02*
X12485000D01*
X12245000Y13708966D02*
X12485000D01*
X12245000Y13699966D02*
X12485000D01*
X12245000Y13690966D02*
X12485000D01*
X12245000Y13681966D02*
X12485000D01*
X12245000Y13672966D02*
X12485000D01*
X12245000Y13663966D02*
X12485000D01*
X12245000Y13654966D02*
X12485000D01*
X12245000Y13645966D02*
X12485000D01*
X12245000Y13636966D02*
X12485000D01*
X12245000Y13627966D02*
X12485000D01*
X12245000Y13618966D02*
X12485000D01*
X12245000Y13609966D02*
X12485000D01*
X12245000Y13600966D02*
X12485000D01*
X12245000Y13591966D02*
X12485000D01*
X12245000Y13582966D02*
X12485000D01*
X12245000Y13573966D02*
X12485000D01*
X12245000Y13564966D02*
X12485000D01*
X12245000Y13555966D02*
X12485000D01*
X12245000Y13546966D02*
X12485000D01*
X12245000Y13537966D02*
X12485000D01*
X12245000Y13528966D02*
X12485000D01*
X12245000Y13519966D02*
X12485000D01*
X12245000Y13510966D02*
X12485000D01*
X12245000Y13501966D02*
X12485000D01*
X12245000Y13492966D02*
X12485000D01*
X12245000Y13483966D02*
X12485000D01*
X12245000Y13474966D02*
X12485000D01*
X12245000Y13465966D02*
X12485000D01*
X12250104Y13456966D02*
X12485000D01*
X12259104Y13447966D02*
X12485000D01*
X12268104Y13438966D02*
X12485000D01*
X12277104Y13429966D02*
X12485000D01*
X12286104Y13420966D02*
X12485000D01*
X12295104Y13411966D02*
X12485000D01*
X12304104Y13402966D02*
X12485000D01*
X12313104Y13393966D02*
X12485000D01*
X12322104Y13384966D02*
X12485000D01*
X12331104Y13375966D02*
X12485000D01*
X12340104Y13366966D02*
X12485000D01*
X12349104Y13357966D02*
X12485000D01*
X12358104Y13348966D02*
X12485000D01*
X12367104Y13339966D02*
X12485000D01*
X12376104Y13330966D02*
X12485000D01*
X12385104Y13321966D02*
X12485000D01*
X12394104Y13312966D02*
X12485000D01*
X12403104Y13303966D02*
X12485000D01*
X12412104Y13294966D02*
X12485000D01*
X12421104Y13285966D02*
X12485000D01*
X12430104Y13276966D02*
X12485000D01*
X12439104Y13267966D02*
X12485000D01*
X12448104Y13258966D02*
X12485000D01*
X10891037Y11593966D02*
X10992500D01*
X10882037Y11584966D02*
X10992500D01*
X10873037Y11575966D02*
X10992500D01*
X10864037Y11566966D02*
X10992500D01*
X10855037Y11557966D02*
X10992500D01*
X10846037Y11548966D02*
X10992500D01*
X10837037Y11539966D02*
X10992500D01*
X10828037Y11530966D02*
X10992500D01*
X10819037Y11521966D02*
X10992500D01*
X10810037Y11512966D02*
X10992500D01*
X10801037Y11503966D02*
X10992500D01*
X10792037Y11494966D02*
X10992500D01*
X10783037Y11485966D02*
X10992500D01*
X10774037Y11476966D02*
X10992500D01*
X10765037Y11467966D02*
X10992500D01*
X10756037Y11458966D02*
X10992500D01*
X10185000Y11449966D02*
X10992500D01*
X10185000Y11440966D02*
X10992500D01*
X10185000Y11431966D02*
X10992500D01*
X10185000Y11422966D02*
X10992500D01*
X10185000Y11413966D02*
X10992500D01*
X10185000Y11404966D02*
X10992500D01*
X10185000Y11395966D02*
X10992500D01*
X10185000Y11386966D02*
X10992500D01*
X10185000Y11377966D02*
X10992500D01*
X10185000Y11368966D02*
X10992500D01*
X10185000Y11359966D02*
X10992500D01*
X10185000Y11350966D02*
X10992500D01*
X10185000Y11341966D02*
X10992500D01*
X10185000Y11332966D02*
X10992500D01*
X10185000Y11323966D02*
X10992500D01*
X10185000Y11314966D02*
X10992500D01*
X10185000Y11305966D02*
X10992500D01*
X10185000Y11296966D02*
X10992500D01*
X10189104Y11287966D02*
X10992500D01*
X10198104Y11278966D02*
X10992500D01*
X10207104Y11269966D02*
X10992500D01*
X10216104Y11260966D02*
X10992500D01*
X10225104Y11251966D02*
X10992500D01*
X10234104Y11242966D02*
X10992500D01*
X10243104Y11233966D02*
X10992500D01*
X10252104Y11224966D02*
X10992500D01*
X10261104Y11215966D02*
X10992500D01*
X10270104Y11206966D02*
X10992500D01*
X10279104Y11197966D02*
X10992500D01*
X10288104Y11188966D02*
X10992500D01*
X10297104Y11179966D02*
X10992500D01*
X10306104Y11170966D02*
X10992500D01*
X10315104Y11161966D02*
X10992500D01*
X10324104Y11152966D02*
X10992500D01*
X10333104Y11143966D02*
X10992500D01*
X10342104Y11134966D02*
X10992500D01*
X10351104Y11125966D02*
X10992500D01*
X10360104Y11116966D02*
X10984895D01*
X10369104Y11107966D02*
X10975895D01*
X10378104Y11098966D02*
X10966895D01*
X10387104Y11089966D02*
X10957895D01*
X10396104Y11080966D02*
X10948895D01*
X10405104Y11071966D02*
X10939895D01*
X10414104Y11062966D02*
X10930895D01*
X10423104Y11053966D02*
X10921895D01*
X10432104Y11044966D02*
X10912895D01*
X10441104Y11035966D02*
X10903895D01*
X10450104Y11026966D02*
X10894895D01*
X10459104Y11017966D02*
X10885895D01*
X10468104Y11008966D02*
X10876895D01*
X10477104Y10999966D02*
X10867895D01*
X10486104Y10990966D02*
X10858895D01*
X10495104Y10981966D02*
X10849895D01*
X10504104Y10972966D02*
X10840895D01*
X10513104Y10963966D02*
X10831895D01*
X10522104Y10954966D02*
X10822895D01*
X10531104Y10945966D02*
X10813895D01*
X10540104Y10936966D02*
X10804895D01*
X10549104Y10927966D02*
X10795895D01*
X10558104Y10918966D02*
X10786895D01*
X10185000Y12250966D02*
X10581250D01*
X10185000Y12241966D02*
X10581250D01*
X10185000Y12232966D02*
X10581250D01*
X10185000Y12223966D02*
X10581250D01*
X10185000Y12214966D02*
X10581250D01*
X10185000Y12205966D02*
X10581250D01*
X10185000Y12196966D02*
X10581250D01*
X10185000Y12187966D02*
X10581250D01*
X10185000Y12178966D02*
X10581250D01*
X10185000Y12169966D02*
X10581250D01*
X10185000Y12160966D02*
X10581250D01*
X10185000Y12151966D02*
X10581250D01*
X10185000Y12142966D02*
X10581250D01*
X10185000Y12133966D02*
X10581250D01*
X10185000Y12124966D02*
X10581250D01*
X10185000Y11458966D02*
X10578962D01*
X10185000Y12115966D02*
X10578895D01*
X10185000Y11467966D02*
X10569962D01*
X10185000Y12106966D02*
X10569895D01*
X10185000Y11476966D02*
X10560962D01*
X10185000Y12097966D02*
X10560895D01*
X10185000Y11485966D02*
X10551962D01*
X10185000Y12088966D02*
X10551895D01*
X10185000Y11494966D02*
X10542962D01*
X10185000Y12079966D02*
X10542895D01*
X10185000Y11503966D02*
X10533962D01*
X10185000Y12070966D02*
X10533895D01*
X10185000Y11512966D02*
X10524962D01*
X10185000Y12061966D02*
X10524895D01*
X10185000Y11521966D02*
X10515962D01*
X10185000Y12052966D02*
X10515895D01*
X10185000Y11530966D02*
X10506962D01*
X10185000Y12043966D02*
X10506895D01*
X10185000Y11539966D02*
X10497962D01*
X10185000Y12034966D02*
X10497895D01*
X10185000Y11548966D02*
X10488962D01*
X10185000Y12025966D02*
X10488895D01*
X10185000Y12016966D02*
X10487500D01*
X10185000Y12007966D02*
X10487500D01*
X10185000Y11998966D02*
X10487500D01*
X10185000Y11989966D02*
X10487500D01*
X10185000Y11980966D02*
X10487500D01*
X10185000Y11971966D02*
X10487500D01*
X10185000Y11962966D02*
X10487500D01*
X10185000Y11953966D02*
X10487500D01*
X10185000Y11944966D02*
X10487500D01*
X10185000Y11935966D02*
X10487500D01*
X10185000Y11926966D02*
X10487500D01*
X10185000Y11917966D02*
X10487500D01*
X10185000Y11908966D02*
X10487500D01*
X10185000Y11899966D02*
X10487500D01*
X10185000Y11890966D02*
X10487500D01*
X10185000Y11881966D02*
X10487500D01*
X10185000Y11872966D02*
X10487500D01*
X10185000Y11863966D02*
X10487500D01*
X10185000Y11854966D02*
X10487500D01*
X10185000Y11845966D02*
X10487500D01*
X10185000Y11836966D02*
X10487500D01*
X10185000Y11827966D02*
X10487500D01*
X10185000Y11818966D02*
X10487500D01*
X10185000Y11809966D02*
X10487500D01*
X10185000Y11800966D02*
X10487500D01*
X10185000Y11791966D02*
X10487500D01*
X10185000Y11782966D02*
X10487500D01*
X10185000Y11773966D02*
X10487500D01*
X10185000Y11764966D02*
X10487500D01*
X10185000Y11755966D02*
X10487500D01*
X10185000Y11746966D02*
X10487500D01*
X10185000Y11737966D02*
X10487500D01*
X10185000Y11728966D02*
X10487500D01*
X10185000Y11719966D02*
X10487500D01*
X10185000Y11710966D02*
X10487500D01*
X10185000Y11701966D02*
X10487500D01*
X10185000Y11692966D02*
X10487500D01*
X10185000Y11683966D02*
X10487500D01*
X10185000Y11674966D02*
X10487500D01*
X10185000Y11665966D02*
X10487500D01*
X10185000Y11656966D02*
X10487500D01*
X10185000Y11647966D02*
X10487500D01*
X10185000Y11638966D02*
X10487500D01*
X10185000Y11629966D02*
X10487500D01*
X10185000Y11620966D02*
X10487500D01*
X10185000Y11611966D02*
X10487500D01*
X10185000Y11602966D02*
X10487500D01*
X10185000Y11593966D02*
X10487500D01*
X10185000Y11584966D02*
X10487500D01*
X10185000Y11575966D02*
X10487500D01*
X10185000Y11566966D02*
X10487500D01*
X10185000Y11557966D02*
X10487500D01*
X12675000Y12631466D02*
X13125000D01*
X12675000Y12622466D02*
X13125000D01*
X12675000Y12613466D02*
X13125000D01*
X12675000Y12604466D02*
X13125000D01*
X12675000Y12595466D02*
X13125000D01*
X12675000Y12586466D02*
X13125000D01*
X12675000Y12577466D02*
X13125000D01*
X12675000Y12568466D02*
X13125000D01*
X12675000Y12559466D02*
X13125000D01*
X12675000Y12550466D02*
X13125000D01*
X12675000Y12541466D02*
X13125000D01*
X12675000Y12532466D02*
X13125000D01*
X12675000Y12523466D02*
X13125000D01*
X12675000Y12514466D02*
X13125000D01*
X12675000Y12505466D02*
X13125000D01*
X12675000Y12496466D02*
X13125000D01*
X12675000Y12487466D02*
X13125000D01*
X12675000Y12478466D02*
X13125000D01*
X12675000Y12469466D02*
X13125000D01*
X12675000Y12460466D02*
X13125000D01*
X12675000Y12451466D02*
X13125000D01*
X12675000Y12442466D02*
X13125000D01*
X12675000Y12433466D02*
X13125000D01*
X12682604Y12424466D02*
X13125000D01*
X12691604Y12415466D02*
X13125000D01*
X12700604Y12406466D02*
X13125000D01*
X12709604Y12397466D02*
X13125000D01*
X12718604Y12388466D02*
X13125000D01*
X12727604Y12379466D02*
X13125000D01*
X12736604Y12370466D02*
X13125000D01*
X12745604Y12361466D02*
X13125000D01*
X12754604Y12352466D02*
X13125000D01*
X12763604Y12343466D02*
X13125000D01*
X12772604Y12334466D02*
X13125000D01*
X12781604Y12325466D02*
X13125000D01*
X12785000Y12316466D02*
X13125000D01*
X12785000Y12307466D02*
X13125000D01*
X12785000Y12298466D02*
X13125000D01*
X12785000Y12289466D02*
X13125000D01*
X12785000Y12280466D02*
X13125000D01*
X12785000Y12271466D02*
X13125000D01*
X12785000Y12262466D02*
X13125000D01*
X12785000Y12253466D02*
X13125000D01*
X12785000Y12244466D02*
X13125000D01*
X12785000Y12235466D02*
X13125000D01*
X12785000Y12226466D02*
X13125000D01*
X12784537Y12217466D02*
X13125000D01*
X12775537Y12208466D02*
X13125000D01*
X12766537Y12199466D02*
X13125000D01*
X12757537Y12190466D02*
X13125000D01*
X12498537Y12181466D02*
X13125000D01*
X12489537Y12172466D02*
X13125000D01*
X12480537Y12163466D02*
X13125000D01*
X12471537Y12154466D02*
X13125000D01*
X12470000Y12145466D02*
X13125000D01*
X12470000Y12136466D02*
X13125000D01*
X12470000Y12127466D02*
X13125000D01*
X12470000Y12118466D02*
X13125000D01*
X12470000Y12109466D02*
X13125000D01*
X12866604Y12100466D02*
X13125000D01*
X12875604Y12091466D02*
X13125000D01*
X12884604Y12082466D02*
X13125000D01*
X12893604Y12073466D02*
X13125000D01*
X12902604Y12064466D02*
X13125000D01*
X12911604Y12055466D02*
X13125000D01*
X12920000Y12046466D02*
X13125000D01*
X12920000Y12037466D02*
X13125000D01*
X12920000Y12028466D02*
X13125000D01*
X12920000Y12019466D02*
X13125000D01*
X12920000Y12010466D02*
X13125000D01*
X12920000Y12001466D02*
X13125000D01*
X12920000Y11992466D02*
X13125000D01*
X12920000Y11983466D02*
X13125000D01*
X12920000Y11974466D02*
X13125000D01*
X12920000Y11965466D02*
X13125000D01*
X12920000Y11956466D02*
X13125000D01*
X12924604Y11947466D02*
X13125000D01*
X12933604Y11938466D02*
X13125000D01*
X12942604Y11929466D02*
X13125000D01*
X12951604Y11920466D02*
X13125000D01*
X12960604Y11911466D02*
X13125000D01*
X12969604Y11902466D02*
X13125000D01*
X12978604Y11893466D02*
X13125000D01*
X12987604Y11884466D02*
X13125000D01*
X12996604Y11875466D02*
X13125000D01*
X13005604Y11866466D02*
X13125000D01*
X12675000Y12640466D02*
X13122462D01*
X12675000Y12649466D02*
X13113462D01*
X12675000Y12658466D02*
X13104462D01*
X12675000Y12667466D02*
X13095462D01*
X12575000Y12676466D02*
X13086462D01*
X12575000Y12685466D02*
X13077462D01*
X12575000Y12694466D02*
X13068462D01*
X12575000Y12703466D02*
X13059462D01*
X12575000Y12712466D02*
X13050462D01*
X12575000Y12721466D02*
X12816462D01*
X12575000Y12730466D02*
X12807462D01*
X12575000Y12739466D02*
X12798462D01*
X12575000Y12748466D02*
X12789462D01*
X12575000Y12982466D02*
X12787500D01*
X12575000Y12973466D02*
X12787500D01*
X12575000Y12964466D02*
X12787500D01*
X12575000Y12955466D02*
X12787500D01*
X12575000Y12946466D02*
X12787500D01*
X12575000Y12937466D02*
X12787500D01*
X12575000Y12928466D02*
X12787500D01*
X12575000Y12919466D02*
X12787500D01*
X12575000Y12910466D02*
X12787500D01*
X12575000Y12901466D02*
X12787500D01*
X12575000Y12892466D02*
X12787500D01*
X12575000Y12883466D02*
X12787500D01*
X12575000Y12874466D02*
X12787500D01*
X12575000Y12865466D02*
X12787500D01*
X12575000Y12856466D02*
X12787500D01*
X12575000Y12847466D02*
X12787500D01*
X12575000Y12838466D02*
X12787500D01*
X12575000Y12829466D02*
X12787500D01*
X12575000Y12820466D02*
X12787500D01*
X12575000Y12811466D02*
X12787500D01*
X12575000Y12802466D02*
X12787500D01*
X12575000Y12793466D02*
X12787500D01*
X12575000Y12784466D02*
X12787500D01*
X12575000Y12775466D02*
X12787500D01*
X12575000Y12766466D02*
X12787500D01*
X12575000Y12757466D02*
X12787500D01*
G54D22*
X10500000Y13254000D03*
Y12746000D03*
X14400000Y13046000D03*
Y13554000D03*
G54D23*
X10830000Y11400000D02*
X10703033Y11453033D01*
X10755000Y11400000*
X10703033Y11346967*
X10830000Y11400000*
X10706005Y11350000D02*
X10710294D01*
X10735402Y11380000D02*
X10782117D01*
X10745201Y11410000D02*
X10806059D01*
X10715804Y11440000D02*
X10734235D01*
X10720000Y11354054D02*
Y11364282D01*
Y11435718D02*
Y11445946D01*
X10750000Y11366584D02*
Y11394897D01*
Y11405102D02*
Y11433415D01*
X10780000Y11379115D02*
Y11420884D01*
X10810000Y11391646D02*
Y11408353D01*
X12304680Y12354680D02*
X12200000Y12315000D01*
X12267175Y12317175*
X12265000Y12250000*
X12304680Y12354680*
X12265971Y12280000D02*
X12276371D01*
X12266942Y12310000D02*
X12287743D01*
X12265952Y12340000D02*
X12299115D01*
X12220000Y12315647D02*
Y12322581D01*
X12250000Y12316619D02*
Y12333953D01*
X12280000Y12289571D02*
Y12345325D01*
X11700000Y12760000D02*
X11654038Y12645962D01*
X11700000Y12695000*
X11745962Y12645962*
X11700000Y12760000*
X11663726Y12670000D02*
X11676568D01*
X11723431D02*
X11736273D01*
X11675817Y12700000D02*
X11724182D01*
X11687908Y12730000D02*
X11712091D01*
X11700000Y12760000D02*
X11700000D01*
X11680000Y12673661D02*
Y12710377D01*
X11710000Y12684330D02*
Y12735188D01*
X11740000Y12652323D02*
Y12660754D01*
X10700000Y12746000D02*
X10560104Y12806104D01*
X10615000Y12746000*
X10560104Y12685896*
X10700000Y12746000*
X10572986Y12700000D02*
X10592932D01*
X10600386Y12730000D02*
X10662759D01*
X10602213Y12760000D02*
X10667414D01*
X10574812Y12790000D02*
X10597587D01*
X10570000Y12690147D02*
Y12696730D01*
Y12795269D02*
Y12801852D01*
X10600000Y12703036D02*
Y12729576D01*
Y12762423D02*
Y12788963D01*
X10630000Y12715925D02*
Y12776074D01*
X10660000Y12728814D02*
Y12763185D01*
X10690000Y12741703D02*
Y12750296D01*
X12210000Y12800000D02*
X12160606Y12810606D01*
X12160606D02*
X12195000Y12800000D01*
X12160606Y12789393*
X12160606D02*
X12210000Y12800000D01*
X12162573Y12790000D02*
X12163431D01*
X12190000Y12795705D02*
Y12798458D01*
Y12801541D02*
Y12804294D01*
X12105000Y12800000D02*
X12138099Y12790868D01*
X12138099D02*
X12105000Y12800000D01*
X12138099Y12809131*
X12138099D02*
X12105000Y12800000D01*
X12130000Y12793103D02*
X12130000D01*
Y12806897D02*
X12130000D01*
X12250000Y12755000D02*
X12239393Y12710606D01*
X12239393D02*
X12250000Y12745000D01*
X12260606Y12710606*
X12260606D02*
X12250000Y12755000D01*
X12244027Y12730000D02*
X12245374D01*
X12254625D02*
X12255973D01*
X12250000Y12745000D02*
Y12755000D01*
Y12745000D02*
X12260606Y12789393D01*
X12260606D02*
X12250000Y12755000D01*
X12239393Y12789393*
X12239393D02*
X12250000Y12745000D01*
X12246416Y12760000D02*
X12248458D01*
X12251542D02*
X12253583D01*
X12250000Y12745000D02*
Y12755000D01*
X12305000Y12800000D02*
X12260606Y12810606D01*
X12260606D02*
X12295000Y12800000D01*
X12260606Y12789393*
X12260606D02*
X12305000Y12800000D01*
X12262573Y12790000D02*
X12263145D01*
X12280000Y12794027D02*
Y12795374D01*
Y12804625D02*
Y12805973D01*
X12295000Y12800000D02*
X12339393Y12789393D01*
X12339393D02*
X12305000Y12800000D01*
X12339393Y12810606*
X12339393D02*
X12295000Y12800000D01*
X12336854Y12790000D02*
X12337426D01*
X12310000Y12796416D02*
Y12798458D01*
Y12801542D02*
Y12803583D01*
X12490000Y12800000D02*
X12539393Y12789393D01*
X12539393D02*
X12505000Y12800000D01*
X12539393Y12810606*
X12539393D02*
X12490000Y12800000D01*
X12536568Y12790000D02*
X12537426D01*
X12490000Y12800000D02*
X12490000D01*
X12520000Y12793557D02*
Y12795374D01*
Y12804625D02*
Y12806442D01*
X12650000Y12755000D02*
X12639393Y12710606D01*
X12639393D02*
X12650000Y12745000D01*
X12660606Y12710606*
X12660606D02*
X12650000Y12755000D01*
X12644027Y12730000D02*
X12645374D01*
X12654625D02*
X12655973D01*
X12640000Y12712573D02*
Y12713145D01*
X12650000Y12745000D02*
X12660606Y12789393D01*
X12660606D02*
X12650000Y12755000D01*
X12639393Y12789393*
X12639393D02*
X12650000Y12745000D01*
X12646416Y12760000D02*
X12648458D01*
X12651542D02*
X12653583D01*
X12640000Y12786854D02*
Y12787426D01*
X12750000Y12810000D02*
X12739393Y12760606D01*
X12739393D02*
X12750000Y12795000D01*
X12760606Y12760606*
X12760606D02*
X12750000Y12810000D01*
X12745705Y12790000D02*
X12748458D01*
X12751541D02*
X12754294D01*
X12760000Y12762573D02*
Y12763431D01*
X12750000Y12800000D02*
X12760606Y12849393D01*
X12760606D02*
X12750000Y12815000D01*
X12739393Y12849393*
X12739393D02*
X12750000Y12800000D01*
X12745705Y12820000D02*
X12748458D01*
X12751542D02*
X12754294D01*
X12760000Y12846568D02*
Y12847426D01*
X12750000Y12905000D02*
X12740868Y12871900D01*
X12740868D02*
X12750000Y12905000D01*
X12759131Y12871900*
X12759131D02*
X12750000Y12905000D01*
X12743103Y12880000D02*
X12743103D01*
X12756896D02*
X12756896D01*
X12750000Y12905000D02*
X12759131Y12938099D01*
X12759131D02*
X12750000Y12905000D01*
X12740868Y12938099*
X12740868D02*
X12750000Y12905000D01*
X12748620Y12910000D02*
X12748620D01*
X12751379D02*
X12751379D01*
X12750000Y12705000D02*
X12739393Y12660606D01*
X12739393D02*
X12750000Y12695000D01*
X12760606Y12660606*
X12760606D02*
X12750000Y12705000D01*
X12741637Y12670000D02*
X12742290D01*
X12757709D02*
X12758362D01*
X12748805Y12700000D02*
X12751194D01*
X12760000Y12662573D02*
Y12663145D01*
X12750000Y12695000D02*
X12760606Y12739393D01*
X12760606D02*
X12750000Y12705000D01*
X12739393Y12739393*
X12739393D02*
X12750000Y12695000D01*
X12748805Y12700000D02*
X12751194D01*
X12741637Y12730000D02*
X12742290D01*
X12757709D02*
X12758362D01*
X12760000Y12736854D02*
Y12737426D01*
X12750000Y12595000D02*
X12760606Y12639393D01*
X12760606D02*
X12750000Y12605000D01*
X12739393Y12639393*
X12739393D02*
X12750000Y12595000D01*
X12746416Y12610000D02*
X12748458D01*
X12751542D02*
X12753583D01*
X12760000Y12636854D02*
Y12637426D01*
X12800000Y13155000D02*
X12789393Y13110606D01*
X12789393D02*
X12800000Y13145000D01*
X12810606Y13110606*
X12810606D02*
X12800000Y13155000D01*
X12791637Y13120000D02*
X12792290D01*
X12807709D02*
X12808362D01*
X12798805Y13150000D02*
X12801194D01*
X12790000Y13112573D02*
Y13113145D01*
X12860000Y13100000D02*
X12810606Y13110606D01*
X12810606D02*
X12845000Y13100000D01*
X12810606Y13089393*
X12810606D02*
X12860000Y13100000D01*
X12812573Y13090000D02*
X12813431D01*
X12820000Y13091410D02*
Y13092290D01*
Y13107709D02*
Y13108589D01*
X12850000Y13097852D02*
Y13102147D01*
X12940000Y13100000D02*
X12989393Y13089393D01*
X12989393D02*
X12955000Y13100000D01*
X12989393Y13110606*
X12989393D02*
X12940000Y13100000D01*
X12986568Y13090000D02*
X12987426D01*
X12940000Y13100000D02*
X12940000D01*
X12970000Y13093557D02*
Y13095374D01*
Y13104625D02*
Y13106442D01*
X13060000Y13100000D02*
X13010606Y13110606D01*
X13010606D02*
X13045000Y13100000D01*
X13010606Y13089393*
X13010606D02*
X13060000Y13100000D01*
X13012573Y13090000D02*
X13013431D01*
X13030000Y13093557D02*
Y13095374D01*
Y13104625D02*
Y13106442D01*
X13060000Y13100000D02*
X13060000D01*
X13140000D02*
X13189393Y13089393D01*
X13189393D02*
X13155000Y13100000D01*
X13189393Y13110606*
X13189393D02*
X13140000Y13100000D01*
X13186568Y13090000D02*
X13187426D01*
X13150000Y13097852D02*
Y13102147D01*
X13180000Y13091410D02*
Y13092290D01*
Y13107709D02*
Y13108589D01*
X13260000Y13100000D02*
X13210606Y13110606D01*
X13210606D02*
X13245000Y13100000D01*
X13210606Y13089393*
X13210606D02*
X13260000Y13100000D01*
X13212573Y13090000D02*
X13213431D01*
X13240000Y13095705D02*
Y13098458D01*
Y13101541D02*
Y13104294D01*
X13540000Y13100000D02*
X13589393Y13089393D01*
X13589393D02*
X13555000Y13100000D01*
X13589393Y13110606*
X13589393D02*
X13540000Y13100000D01*
X13586568Y13090000D02*
X13587426D01*
X13540000Y13100000D02*
X13540000D01*
X13570000Y13093557D02*
Y13095374D01*
Y13104625D02*
Y13106442D01*
X13513137Y12986863D02*
X13465000Y13100000D01*
X13467175Y13032824*
X13467175D02*
X13400000Y13035000D01*
X13513137Y12986863*
X13482261Y13000000D02*
X13507547D01*
X13411751Y13030000D02*
X13494783D01*
X13466295Y13060000D02*
X13482019D01*
X13465323Y13090000D02*
X13469254D01*
X13420000Y13026490D02*
Y13034352D01*
X13450000Y13013726D02*
Y13033381D01*
X13480000Y13000962D02*
Y13064745D01*
X13510000Y12988197D02*
Y12994236D01*
X14258578Y12904578D02*
X14400000Y12961000D01*
X14318682Y12964682*
X14318682D02*
X14315000Y13046000D01*
X14258578Y12904578*
X14260741Y12910000D02*
X14272167D01*
X14272710Y12940000D02*
X14347362D01*
X14284679Y12970000D02*
X14318441D01*
X14296647Y13000000D02*
X14317083D01*
X14308616Y13030000D02*
X14315724D01*
X14260000Y12905145D02*
Y12908141D01*
X14290000Y12917114D02*
Y12983337D01*
X14320000Y12929083D02*
Y12964623D01*
X14350000Y12941052D02*
Y12963264D01*
X14380000Y12953020D02*
Y12961905D01*
X13660000Y13100000D02*
X13610606Y13110606D01*
X13610606D02*
X13645000Y13100000D01*
X13610606Y13089393*
X13610606D02*
X13660000Y13100000D01*
X13612573Y13090000D02*
X13613431D01*
X13630000Y13093557D02*
Y13095374D01*
Y13104625D02*
Y13106442D01*
X13660000Y13100000D02*
X13660000D01*
X13740000D02*
X13789393Y13089393D01*
X13789393D02*
X13755000Y13100000D01*
X13789393Y13110606*
X13789393D02*
X13740000Y13100000D01*
X13786568Y13090000D02*
X13787426D01*
X13750000Y13097852D02*
Y13102147D01*
X13780000Y13091410D02*
Y13092290D01*
Y13107709D02*
Y13108589D01*
X13800000Y13155000D02*
X13789393Y13110606D01*
X13789393D02*
X13800000Y13145000D01*
X13810606Y13110606*
X13810606D02*
X13800000Y13155000D01*
X13791637Y13120000D02*
X13792290D01*
X13807709D02*
X13808362D01*
X13798805Y13150000D02*
X13801194D01*
X13810000Y13112573D02*
Y13113145D01*
X10700000Y13254000D02*
X10560104Y13314104D01*
X10615000Y13254000*
X10560104Y13193896*
X10700000Y13254000*
X10574812Y13210000D02*
X10597587D01*
X10602213Y13240000D02*
X10667414D01*
X10600386Y13270000D02*
X10662759D01*
X10572986Y13300000D02*
X10592932D01*
X10570000Y13198147D02*
Y13204730D01*
Y13303269D02*
Y13309852D01*
X10600000Y13211036D02*
Y13237576D01*
Y13270423D02*
Y13296963D01*
X10630000Y13223925D02*
Y13284074D01*
X10660000Y13236814D02*
Y13271185D01*
X10690000Y13249703D02*
Y13258296D01*
X11700000Y13240000D02*
X11745962Y13354038D01*
X11700000Y13305000*
X11654038Y13354038*
X11700000Y13240000*
X11700000*
X11687908Y13270000D02*
X11712091D01*
X11675817Y13300000D02*
X11724182D01*
X11663726Y13330000D02*
X11676568D01*
X11723431D02*
X11736273D01*
X11680000Y13289622D02*
Y13326338D01*
X11710000Y13264811D02*
Y13315669D01*
X11740000Y13339245D02*
Y13347677D01*
X12960000Y13200000D02*
X12910606Y13210606D01*
X12910606D02*
X12945000Y13200000D01*
X12910606Y13189393*
X12910606D02*
X12960000Y13200000D01*
X12912573Y13210000D02*
X12913431D01*
X12940000Y13195705D02*
Y13198458D01*
Y13201541D02*
Y13204294D01*
X13040000Y13200000D02*
X13089393Y13189393D01*
X13089393D02*
X13055000Y13200000D01*
X13089393Y13210606*
X13089393D02*
X13040000Y13200000D01*
X13086568Y13210000D02*
X13087426D01*
X13060000Y13195705D02*
Y13198458D01*
Y13201542D02*
Y13204294D01*
X12845000Y13200000D02*
X12889393Y13189393D01*
X12889393D02*
X12855000Y13200000D01*
X12889393Y13210606*
X12889393D02*
X12845000Y13200000D01*
X12886854Y13210000D02*
X12887426D01*
X12850000Y13198805D02*
Y13201194D01*
X12880000Y13191637D02*
Y13192290D01*
Y13207709D02*
Y13208362D01*
X12940000Y13300000D02*
X12989393Y13289393D01*
X12989393D02*
X12955000Y13300000D01*
X12989393Y13310606*
X12989393D02*
X12940000Y13300000D01*
X12955000*
X12940000D02*
X12940000D01*
X12970000Y13293557D02*
Y13295374D01*
Y13304625D02*
Y13306442D01*
X13060000Y13300000D02*
X13010606Y13310606D01*
X13010606D02*
X13045000Y13300000D01*
X13010606Y13289393*
X13010606D02*
X13060000Y13300000D01*
X13045000D02*
X13060000D01*
X13030000Y13293557D02*
Y13295374D01*
Y13304625D02*
Y13306442D01*
X13060000Y13300000D02*
X13060000D01*
X13140000D02*
X13189393Y13289393D01*
X13189393D02*
X13155000Y13300000D01*
X13189393Y13310606*
X13189393D02*
X13140000Y13300000D01*
X13155000*
X13150000Y13297852D02*
Y13302147D01*
X13180000Y13291410D02*
Y13292290D01*
Y13307709D02*
Y13308589D01*
X13160000Y13200000D02*
X13110606Y13210606D01*
X13110606D02*
X13145000Y13200000D01*
X13110606Y13189393*
X13110606D02*
X13160000Y13200000D01*
X13112573Y13210000D02*
X13113431D01*
X13120000Y13191410D02*
Y13192290D01*
Y13207709D02*
Y13208589D01*
X13150000Y13197852D02*
Y13202147D01*
X13240000Y13200000D02*
X13289393Y13189393D01*
X13289393D02*
X13255000Y13200000D01*
X13289393Y13210606*
X13289393D02*
X13240000Y13200000D01*
X13286568Y13210000D02*
X13287426D01*
X13240000Y13200000D02*
X13240000D01*
X13270000Y13193557D02*
Y13195374D01*
Y13204625D02*
Y13206442D01*
X13260000Y13300000D02*
X13210606Y13310606D01*
X13210606D02*
X13245000Y13300000D01*
X13210606Y13289393*
X13210606D02*
X13260000Y13300000D01*
X13245000D02*
X13260000D01*
X13240000Y13295705D02*
Y13298458D01*
Y13301541D02*
Y13304294D01*
X13340000Y13300000D02*
X13389393Y13289393D01*
X13389393D02*
X13355000Y13300000D01*
X13389393Y13310606*
X13389393D02*
X13340000Y13300000D01*
X13355000*
X13360000Y13295705D02*
Y13298458D01*
Y13301542D02*
Y13304294D01*
Y13200000D02*
X13310606Y13210606D01*
X13310606D02*
X13345000Y13200000D01*
X13310606Y13189393*
X13310606D02*
X13360000Y13200000D01*
X13312573Y13210000D02*
X13313431D01*
X13330000Y13193557D02*
Y13195374D01*
Y13204625D02*
Y13206442D01*
X13360000Y13200000D02*
X13360000D01*
X13440000D02*
X13489393Y13189393D01*
X13489393D02*
X13455000Y13200000D01*
X13489393Y13210606*
X13489393D02*
X13440000Y13200000D01*
X13486568Y13210000D02*
X13487426D01*
X13450000Y13197852D02*
Y13202147D01*
X13480000Y13191410D02*
Y13192290D01*
Y13207709D02*
Y13208589D01*
X13560000Y13200000D02*
X13510606Y13210606D01*
X13510606D02*
X13545000Y13200000D01*
X13510606Y13189393*
X13510606D02*
X13560000Y13200000D01*
X13512573Y13210000D02*
X13513431D01*
X13540000Y13195705D02*
Y13198458D01*
Y13201541D02*
Y13204294D01*
X13660000Y13200000D02*
X13709393Y13189393D01*
X13709393D02*
X13675000Y13200000D01*
X13709393Y13210606*
X13709393D02*
X13660000Y13200000D01*
X13706568Y13210000D02*
X13707426D01*
X13660000Y13200000D02*
X13660000D01*
X13690000Y13193557D02*
Y13195374D01*
Y13204625D02*
Y13206442D01*
X13460000Y13300000D02*
X13410606Y13310606D01*
X13410606D02*
X13445000Y13300000D01*
X13410606Y13289393*
X13410606D02*
X13460000Y13300000D01*
X13445000D02*
X13460000D01*
X13420000Y13291410D02*
Y13292290D01*
Y13307709D02*
Y13308589D01*
X13450000Y13297852D02*
Y13302147D01*
X13540000Y13300000D02*
X13589393Y13289393D01*
X13589393D02*
X13555000Y13300000D01*
X13589393Y13310606*
X13589393D02*
X13540000Y13300000D01*
X13555000*
X13540000D02*
X13540000D01*
X13570000Y13293557D02*
Y13295374D01*
Y13304625D02*
Y13306442D01*
X13655000Y13300000D02*
X13610606Y13310606D01*
X13610606D02*
X13645000Y13300000D01*
X13610606Y13289393*
X13610606D02*
X13655000Y13300000D01*
X13645000D02*
X13655000D01*
X13630000Y13294027D02*
Y13295374D01*
Y13304625D02*
Y13305973D01*
X13800000Y13245000D02*
X13810606Y13289393D01*
X13810606D02*
X13800000Y13255000D01*
X13789393Y13289393*
X13789393D02*
X13800000Y13245000D01*
X13794026Y13270000D02*
X13795374D01*
X13804625D02*
X13805973D01*
X13810000Y13286854D02*
Y13287426D01*
X13800000Y13360000D02*
X13789393Y13310606D01*
X13789393D02*
X13800000Y13345000D01*
X13810606Y13310606*
X13810606D02*
X13800000Y13360000D01*
X13793557Y13330000D02*
X13795374D01*
X13804625D02*
X13806442D01*
X13800000Y13360000D02*
X13800000D01*
X13810000Y13312573D02*
Y13313431D01*
Y13670000D02*
X13859393Y13659393D01*
X13859393D02*
X13825000Y13670000D01*
X13859393Y13680606*
X13859393D02*
X13810000Y13670000D01*
X13856568Y13660000D02*
X13857426D01*
X13810000Y13670000D02*
X13810000D01*
X13840000Y13663557D02*
Y13665374D01*
Y13674625D02*
Y13676442D01*
X14200000Y13554000D02*
X14339896Y13493896D01*
X14285000Y13554000*
X14339896Y13614104*
X14200000Y13554000*
X14302412Y13510000D02*
X14325187D01*
X14232585Y13540000D02*
X14297786D01*
X14237241Y13570000D02*
X14299613D01*
X14307067Y13600000D02*
X14327014D01*
X14200000Y13554000D02*
X14200000D01*
X14230000Y13541110D02*
Y13566889D01*
X14260000Y13528221D02*
Y13579778D01*
X14290000Y13515332D02*
Y13548525D01*
Y13559474D02*
Y13592667D01*
X14320000Y13502443D02*
Y13515679D01*
Y13592320D02*
Y13605556D01*
X13400000Y13840000D02*
X13445962Y13954038D01*
X13400000Y13905000*
X13354038Y13954038*
X13400000Y13840000*
X13400000*
X13387908Y13870000D02*
X13412091D01*
X13375817Y13900000D02*
X13424182D01*
X13363726Y13930000D02*
X13376568D01*
X13423431D02*
X13436273D01*
X13360000Y13939245D02*
Y13947677D01*
X13390000Y13864811D02*
Y13915669D01*
X13420000Y13889622D02*
Y13926338D01*
X10650000Y11400000D02*
X11110000D01*
X11300000Y11590000*
Y12870000*
X12373000Y11848000D02*
X12439091Y11869091D01*
X12439091D02*
X12427000Y11812000D01*
X12391000Y11836000D02*
X12439091Y11869091D01*
X12439091D02*
X12409000Y11824000D01*
X12773000Y11988000D02*
X12760908Y11930908D01*
X12827000Y11952000*
X12791000Y11976000D02*
X12760908Y11930908D01*
X12809000Y11964000*
X12400000Y11830000D02*
X12470000Y11900000D01*
X12730000*
X12800000Y11970000*
X12630000Y11848000D02*
X12657000Y11830000D01*
X12630000Y11812000*
X12657000Y11830000D02*
X12630000D01*
X12770000Y11812000D02*
X12743000Y11830000D01*
X12770000Y11848000*
X12743000Y11830000D02*
X12770000D01*
X12600000D02*
X12800000D01*
X12830000Y11812000D02*
X12857000Y11830000D01*
X12830000Y11848000*
X12857000Y11830000D02*
X12830000D01*
X12899100Y11840305D02*
X12874750Y11830000D01*
X12899100Y11819694*
X12800000Y11830000D02*
X12910000D01*
X12230000Y11988000D02*
X12257000Y11970000D01*
X12230000Y11952000*
X12257000Y11970000D02*
X12230000D01*
X12370000Y11952000D02*
X12343000Y11970000D01*
X12370000Y11988000*
X12343000Y11970000D02*
X12370000D01*
X12200000D02*
X12400000D01*
X12227000Y11990000D02*
X12200000Y12017000D01*
X12173000Y11990000*
X12200000Y12017000D02*
Y11990000D01*
X12244656Y12202768D02*
X12200000Y12097250D01*
X12155343Y12202768*
X12219180Y12187894D02*
X12200000Y12097250D01*
Y12185000*
Y12097250D02*
X12180819Y12187894D01*
X12200000Y11970000D02*
Y12250000D01*
X12430000Y11952000D02*
X12457000Y11970000D01*
X12430000Y11988000*
X12457000Y11970000D02*
X12430000D01*
X12570000Y11988000D02*
X12543000Y11970000D01*
X12570000Y11952000*
X12543000Y11970000D02*
X12570000D01*
X12400000D02*
X12600000D01*
X12356750Y12480000D02*
X12336500Y12430500D01*
X12316250Y12480000*
X12336500Y12430500D02*
Y12480000D01*
X12200000Y12250000D02*
X12336500Y12386500D01*
Y12535000*
X12700000Y12130000D02*
X12850000D01*
Y12450000*
X12500000Y12130000D02*
X12700000D01*
X11700000Y12600000D02*
Y12870000D01*
X12220305Y12420899D02*
X12210000Y12445250D01*
X12199694Y12420899*
X12209500Y12535000D02*
X12210000Y12534500D01*
Y12410000*
X12483750Y12480000D02*
X12463500Y12430500D01*
X12443250Y12480000*
X12463500Y12430500D02*
Y12480000D01*
X12473000Y12290000D02*
X12500000Y12317000D01*
X12527000Y12290000*
X12500000Y12317000D02*
Y12290000D01*
X12463500Y12535000D02*
Y12406500D01*
X12500000Y12370000*
Y12270000*
X12610750Y12480000D02*
X12590500Y12430500D01*
X12570250Y12480000*
X12590500Y12430500D02*
Y12480000D01*
X12673000Y12252000D02*
X12660908Y12309091D01*
X12660908D02*
X12727000Y12288000D01*
X12691000Y12264000D02*
X12660908Y12309091D01*
X12660908D02*
X12709000Y12276000D01*
X12590500Y12535000D02*
Y12379500D01*
X12700000Y12270000*
X10500000Y12746000D02*
X11010000D01*
X11134000Y12870000*
X11300000*
X12400000Y12800000D02*
X12150000D01*
X12060000*
X12057285Y12802714D02*
X12060000Y12800000D01*
X12350000D02*
X12400000D01*
X12250000Y12700000D02*
Y12800000D01*
X12350000*
X12550000D02*
X12400000D01*
X12450000*
X12650000Y12700000D02*
Y12800000D01*
X12550000D02*
X12590500D01*
Y13065000*
X12750000Y12750000D02*
Y12860000D01*
Y12950000*
Y12750000D02*
Y12650000D01*
Y12550000*
X12850000Y12450000*
X11300000Y12870000D02*
X11700000D01*
X11940000*
X12000000Y12930000*
Y12800000*
X12060000*
X12000000Y13070000D02*
X12105000D01*
X12110000Y13065000*
X12209500*
X12463500D02*
Y13600000D01*
X12495000*
X12590500Y13065000D02*
X12715000D01*
X12750000Y13100000*
X12800000*
Y13200000*
Y13100000D02*
X13000000D01*
X13200000*
X13600000*
X13400000D02*
X13704000Y12796000D01*
X14150000*
X14400000Y13046000*
X13600000Y13100000D02*
X13800000D01*
Y13200000*
X10500000Y13254000D02*
X10876000D01*
X11000000Y13130000*
X11300000*
X11700000*
X11940000*
X12000000Y13070000*
X11700000Y13130000D02*
Y13400000D01*
X12148000Y13330000D02*
X12130000Y13357000D01*
X12112000Y13330000*
X12130000Y13357000D02*
Y13330000D01*
X12112000Y13470000D02*
X12130000Y13443000D01*
X12148000Y13470000*
X12130000Y13443000D02*
Y13470000D01*
Y13300000D02*
Y13500000D01*
X12252000Y13273000D02*
X12309091Y13260908D01*
X12309091D02*
X12288000Y13327000D01*
X12264000Y13291000D02*
X12309091Y13260908D01*
X12309091D02*
X12276000Y13309000D01*
X12270000Y13300000D02*
X12336500Y13233500D01*
Y13065000*
X13100000Y13200000D02*
X12900000D01*
X12800000*
Y13300000*
X13000000*
X13200000*
X13100000Y13200000D02*
X13300000D01*
X13200000Y13300000D02*
X13400000D01*
X13300000Y13200000D02*
X13500000D01*
X13720000*
X13400000Y13300000D02*
X13600000D01*
X13720000Y13200000D02*
X13800000D01*
X13600000Y13300000D02*
X13700000D01*
Y13420000*
X13800000Y13300000D02*
Y13200000D01*
X12270000Y13500000D02*
Y13770000D01*
X12435000*
X12495000Y13710000*
Y13600000*
X13105000D02*
X13370000D01*
X13400000Y13420000D02*
X13700000D01*
X13380000Y13600000D02*
X13370000D01*
X13400000*
Y13675000*
X13700000Y13420000D02*
X13800000D01*
Y13300000*
X12200000Y13800000D02*
X12244999Y13755000D01*
X13400000Y13675000D02*
X13700000D01*
Y13670000D02*
X13870000D01*
X13954000*
X14070000Y13554000*
X14400000*
X13400000Y14000000D02*
Y13675000D01*
G54D36*
X12270000Y13500000D03*
X12130000D03*
Y13300000D03*
X12270000D03*
G54D45*
X12209500Y12535000D03*
X12336500D03*
X12463500D03*
X12590500D03*
Y13065000D03*
X12463500D03*
X12336500D03*
X12209500D03*
G54D46*
X12400000Y12800000D03*
G74*
X0Y0D02*
M02*
